<svg width="238" height="63" viewBox="0 0 238 63" fill="none" xmlns="http://www.w3.org/2000/svg">
<g clip-path="url(#clip0)">
<path d="M83.8072 18.3881V41.7769H78.501V18.3881H83.8072Z" fill="#F9F9F6"/>
<path d="M104.525 31.5V41.7375H99.5699V32.2481C99.5699 30.1613 98.2823 29.2163 96.6826 29.2163C94.8489 29.2163 93.6003 30.2794 93.6003 32.6419V41.7769H88.6453V25.0425H93.6003V26.6175C94.4977 25.3969 96.1364 24.57 98.3213 24.57C101.677 24.57 104.525 27.0113 104.525 31.5Z" fill="#F9F9F6"/>
<path d="M114.981 25.0425H118.064V29.8463H114.981V41.7375H110.026V29.8463H107.802V25.0425H110.026C110.026 20.3569 112.562 17.5613 118.064 17.8763V22.68C116.191 22.5619 114.981 23.1131 114.981 25.0425Z" fill="#F9F9F6"/>
<path d="M120.405 33.39C120.405 28.4288 124.306 24.57 129.183 24.57C134.06 24.57 137.962 28.4288 137.962 33.39C137.962 38.3513 134.06 42.21 129.183 42.21C124.306 42.21 120.405 38.3906 120.405 33.39ZM132.968 33.39C132.968 31.0275 131.329 29.4525 129.144 29.4525C126.959 29.4525 125.321 31.0275 125.321 33.39C125.321 35.7525 126.959 37.3275 129.144 37.3275C131.329 37.3275 132.968 35.7919 132.968 33.39Z" fill="#F9F9F6"/>
<path d="M151.228 24.7275V30.3975C149.16 30.0825 146.272 30.9094 146.272 34.2169V41.7769H141.317V25.0425H146.272V28.035C146.936 25.7907 149.121 24.7275 151.228 24.7275Z" fill="#F9F9F6"/>
<path d="M179.905 31.5V41.7375H174.949V31.9331C174.949 30.2794 174.169 29.1769 172.569 29.1769C170.931 29.1769 169.994 30.3581 169.994 32.3269V41.7375H165.039V31.9331C165.039 30.2794 164.259 29.1769 162.659 29.1769C161.021 29.1769 160.084 30.3581 160.084 32.3269V41.7375H155.129V25.0425H160.084V26.5781C160.865 25.4363 162.308 24.57 164.532 24.57C166.483 24.57 167.927 25.3575 168.863 26.775C169.799 25.4363 171.321 24.57 173.662 24.57C177.408 24.57 179.905 27.3263 179.905 31.5Z" fill="#F9F9F6"/>
<path d="M201.325 25.0425V41.7375H196.37V40.1625C195.277 41.4225 193.638 42.21 191.454 42.21C187.123 42.21 183.533 38.3513 183.533 33.39C183.533 28.4288 187.123 24.57 191.454 24.57C193.677 24.57 195.277 25.3575 196.37 26.6175V25.0425H201.325ZM196.331 33.39C196.331 30.87 194.692 29.295 192.39 29.295C190.088 29.295 188.449 30.87 188.449 33.39C188.449 35.91 190.088 37.485 192.39 37.485C194.692 37.485 196.331 35.91 196.331 33.39Z" fill="#F9F9F6"/>
<path d="M222.979 25.0425V41.7375H218.024V40.1625C216.931 41.4225 215.292 42.21 213.108 42.21C208.777 42.21 205.187 38.3513 205.187 33.39C205.187 28.4288 208.777 24.57 213.108 24.57C215.332 24.57 216.931 25.3575 218.024 26.6175V25.0425H222.979ZM217.985 33.39C217.985 30.87 216.346 29.295 214.044 29.295C211.742 29.295 210.103 30.87 210.103 33.39C210.103 35.91 211.742 37.485 214.044 37.485C216.346 37.485 217.985 35.91 217.985 33.39Z" fill="#F9F9F6"/>
<path d="M234.254 29.8462V35.7525C234.254 37.17 235.464 37.3275 237.649 37.17V41.6981C231.172 42.3675 229.26 40.3987 229.26 35.7131V29.8069H226.607V25.0425H229.26V21.8531L234.215 20.3569V25.0425H237.61V29.8462H234.254Z" fill="#F9F9F6"/>
<path fill-rule="evenodd" clip-rule="evenodd" d="M62.036 0.393738L1.17046 1.96874L0.390137 62.6062L62.8164 63.3937L62.036 0.393738ZM40.3039 31.5787L40.538 17.6794V16.8525L41.3573 16.8919L45.4541 17.1281L46.1954 17.1675V17.9156L46.5075 31.3425V32.13L45.7272 32.1694L41.0452 32.4056L40.1869 32.445L40.3039 31.5787ZM22.8636 32.3269L22.6295 46.2262V47.0531L21.8101 47.0137L17.7134 46.7775L16.9721 46.7381V45.99L16.66 32.5631V31.7756L17.4403 31.7362L22.1223 31.5L22.9806 31.4606L22.8636 32.3269ZM19.6252 23.2706C17.4793 23.2706 15.8016 21.7744 15.8016 19.8844C15.8016 17.9156 17.5183 16.3406 19.6252 16.3406C22.1223 16.4194 23.6829 17.7581 23.6829 19.845C23.6829 21.8925 21.6151 23.2706 19.6252 23.2706ZM43.5033 47.565C41.0062 47.4862 39.4455 46.1475 39.4455 44.0606C39.4455 42.0131 41.5524 40.5956 43.5033 40.5956C45.6492 40.5956 47.3269 42.0919 47.3269 43.9819C47.3659 45.99 45.6492 47.565 43.5033 47.565Z" fill="#F9F9F6"/>
</g>
<defs>
<clipPath id="clip0">
<rect width="238" height="63" fill="white"/>
</clipPath>
</defs>
</svg>
