<svg viewBox="0 0 124 195" fill="none" xmlns="http://www.w3.org/2000/svg">
<path d="M118.951 63.6811C118.951 65.3061 118.879 66.9101 118.756 68.5031C118.529 71.2071 118.118 73.8491 117.543 76.4301C116.741 80.0181 115.6 83.4731 114.16 86.7631C112.803 89.8991 111.168 92.8901 109.297 95.6971C107.807 97.9391 106.161 100.067 104.383 102.071C103.941 102.565 103.498 103.048 103.046 103.521C101.566 105.094 99.9918 106.564 98.3478 107.942C97.9258 108.302 97.5049 108.652 97.0729 108.991C95.0269 110.625 92.8578 112.127 90.5958 113.463C89.8969 113.885 89.1768 114.286 88.4568 114.677C82.6579 117.802 76.2628 119.961 69.4978 120.938C66.7528 121.349 63.9348 121.555 61.0779 121.555C58.2608 121.555 55.4948 121.349 52.7908 120.958C45.9638 119.981 39.5178 117.812 33.6778 114.677C32.7218 114.153 31.7758 113.617 30.8608 113.052C28.0738 111.345 25.4528 109.412 23.0058 107.264C22.7378 107.037 22.4608 106.801 22.2038 106.555C20.3738 104.9 18.6468 103.121 17.0428 101.24C16.7448 100.89 16.4468 100.541 16.1588 100.181C13.7428 97.2101 11.6138 94.0021 9.81585 90.5891C9.64085 90.2601 9.47685 89.9311 9.31185 89.6021C7.91385 86.8161 6.73085 83.8961 5.78485 80.8731C5.59985 80.2671 5.42485 79.6601 5.26085 79.0531C4.39685 75.9271 3.78985 72.6991 3.47185 69.3791C3.42085 68.8241 3.36885 68.2691 3.32785 67.7031C3.24585 66.3761 3.19385 65.0301 3.19385 63.6821C3.19385 62.8701 3.21485 62.0681 3.24585 61.2661C3.25585 60.8651 3.27685 60.4751 3.30785 60.0741C3.46185 57.4521 3.80085 54.8711 4.30485 52.3531C4.41785 51.7871 4.54085 51.2221 4.66485 50.6661C5.12785 48.6611 5.69285 46.6871 6.36185 44.7751C6.59785 44.0761 6.85485 43.3771 7.12285 42.6981C7.93485 40.5901 8.88085 38.5441 9.92985 36.5701C10.7628 34.9971 11.6678 33.4651 12.6438 31.9851C13.2708 31.0191 13.9288 30.0831 14.6178 29.1581C15.3678 28.1401 16.1598 27.1531 16.9828 26.1971C18.4218 24.5001 19.9538 22.8971 21.5678 21.4051C22.1228 20.8811 22.6778 20.3771 23.2538 19.8841C25.4228 18.0031 27.7258 16.2851 30.1628 14.7541C30.9848 14.2301 31.8178 13.7261 32.6708 13.2531C33.9048 12.5541 35.1689 11.8951 36.4649 11.2891C37.2668 10.9091 38.0788 10.5491 38.9018 10.2091C41.3278 9.20206 43.8258 8.35806 46.4068 7.68006C47.7018 7.34106 49.0178 7.05306 50.3549 6.80706C52.3699 6.42706 54.4158 6.14906 56.5028 5.98406C57.5508 5.90206 58.6098 5.85006 59.6798 5.83006C60.1428 5.82006 60.6049 5.81006 61.0779 5.81006C62.1879 5.81006 63.2878 5.84106 64.3778 5.90306C65.0768 5.94406 65.7759 5.99506 66.4649 6.05706C69.3749 6.32506 72.2119 6.80806 74.9678 7.49706C75.6059 7.65106 76.2328 7.81606 76.8598 7.99106C79.9748 8.87506 82.9769 10.0061 85.8559 11.3731C86.6778 11.7641 87.4808 12.1651 88.2828 12.5971C89.7838 13.3881 91.2328 14.2521 92.6518 15.1781C92.8988 15.3431 93.1558 15.5071 93.4028 15.6721C95.3768 17.0081 97.2788 18.4681 99.0678 20.0421C100.26 21.0601 101.391 22.1391 102.481 23.2711C104.188 25.0081 105.782 26.8491 107.242 28.7921C107.54 29.1721 107.828 29.5531 108.094 29.9431C109.534 31.9381 110.839 34.0141 112.012 36.1841C112.228 36.5751 112.433 36.9761 112.628 37.3661C114.551 41.1191 116.072 45.0981 117.142 49.2621C117.687 51.3801 118.109 53.5391 118.407 55.7391C118.767 58.3351 118.951 60.9881 118.951 63.6811Z" fill="#141720"/>
<path d="M25.638 102.802C25.638 102.853 25.638 102.905 25.628 102.956C25.577 104.817 24.538 106.421 23.006 107.264C22.81 107.377 22.615 107.48 22.399 107.552C21.823 107.789 21.186 107.912 20.528 107.912C17.711 107.912 15.428 105.62 15.428 102.802C15.428 102.319 15.5 101.846 15.623 101.394C15.747 100.962 15.932 100.551 16.158 100.181C17.042 98.7011 18.667 97.7031 20.528 97.7031C20.99 97.7031 21.433 97.7651 21.854 97.8781C22.512 98.0421 23.108 98.3401 23.623 98.7411C24.065 99.0801 24.445 99.4811 24.764 99.9441C25.319 100.756 25.638 101.743 25.638 102.802Z" fill="#141720"/>
<path d="M11.6451 47.7661C11.6451 48.7531 11.3571 49.6791 10.8631 50.4601C9.96806 51.9101 8.36506 52.8661 6.53506 52.8661C5.73306 52.8661 4.98206 52.6811 4.30406 52.3521C3.93406 52.1771 3.59506 51.9511 3.28606 51.7041C2.15506 50.7681 1.43506 49.3501 1.43506 47.7661C1.43506 45.4841 2.92606 43.5611 4.97206 42.9031C5.46606 42.7381 5.99006 42.6561 6.53506 42.6561C6.73006 42.6561 6.92606 42.6671 7.12106 42.6981C9.40306 42.9451 11.2231 44.7031 11.5731 46.9541C11.6241 47.2211 11.6451 47.4881 11.6451 47.7661Z" fill="#141720"/>
<path d="M40.2481 13.663C40.2481 14.773 39.8881 15.812 39.2911 16.644C38.5921 17.621 37.5431 18.34 36.3411 18.628C35.9601 18.721 35.5591 18.772 35.1481 18.772C32.7011 18.772 30.6551 17.055 30.1621 14.752C30.0801 14.402 30.0381 14.032 30.0381 13.662C30.0381 13.21 30.1001 12.778 30.2131 12.367C30.7791 10.177 32.7831 8.56305 35.1481 8.56305C35.6931 8.56305 36.2071 8.64505 36.7001 8.80005C37.5531 9.07705 38.3041 9.56105 38.9011 10.208C39.7341 11.113 40.2481 12.326 40.2481 13.663Z" fill="#141720"/>
<path d="M88.3069 20.956C91.1257 20.956 93.4109 18.6709 93.4109 15.852C93.4109 13.0332 91.1257 10.748 88.3069 10.748C85.488 10.748 83.2029 13.0332 83.2029 15.852C83.2029 18.6709 85.488 20.956 88.3069 20.956Z" fill="#141720"/>
<path d="M10.596 64.679C10.596 65.327 10.472 65.954 10.246 66.519C9.50596 68.431 7.65496 69.789 5.48596 69.789C4.76596 69.789 4.08696 69.645 3.47096 69.378C3.04896 69.193 2.65896 68.946 2.29896 68.669C1.13696 67.733 0.386963 66.294 0.386963 64.68C0.386963 62.942 1.25096 61.41 2.57696 60.485C2.80296 60.331 3.04996 60.187 3.30696 60.074C3.96496 59.755 4.70496 59.58 5.48696 59.58C7.64596 59.58 9.49696 60.916 10.237 62.809C10.473 63.383 10.596 64.02 10.596 64.679Z" fill="#141720"/>
<path d="M100.151 110.034C102.97 110.034 105.255 107.749 105.255 104.93C105.255 102.111 102.97 99.826 100.151 99.826C97.332 99.826 95.0469 102.111 95.0469 104.93C95.0469 107.749 97.332 110.034 100.151 110.034Z" fill="#141720"/>
<path d="M105.401 104.096C108.22 104.096 110.505 101.811 110.505 98.9921C110.505 96.1732 108.22 93.8881 105.401 93.8881C102.582 93.8881 100.297 96.1732 100.297 98.9921C100.297 101.811 102.582 104.096 105.401 104.096Z" fill="#141720"/>
<path d="M93.406 114.304C96.2249 114.304 98.51 112.019 98.51 109.2C98.51 106.381 96.2249 104.096 93.406 104.096C90.5871 104.096 88.302 106.381 88.302 109.2C88.302 112.019 90.5871 114.304 93.406 114.304Z" fill="#141720"/>
<path d="M66.5779 7.13407C66.5779 9.03607 65.5399 10.6921 63.9969 11.5661C63.2469 11.9981 62.3829 12.2441 61.4679 12.2441C61.3339 12.2441 61.2109 12.2441 61.0769 12.2231C60.0789 12.1511 59.1639 11.7911 58.4139 11.2161C57.1699 10.2911 56.3679 8.80007 56.3679 7.13407C56.3679 6.73307 56.4089 6.35307 56.5019 5.98307C56.7689 4.79007 57.4679 3.76207 58.4139 3.06307C59.1639 2.48707 60.0789 2.12707 61.0769 2.05607C61.2109 2.03507 61.3339 2.03506 61.4679 2.03506C63.2159 2.03506 64.7579 2.90906 65.6729 4.24506C66.0429 4.78006 66.3209 5.39706 66.4649 6.05506C66.5369 6.40406 66.5779 6.76407 66.5779 7.13407Z" fill="#141720"/>
<path d="M110.505 37.8231C113.324 37.8231 115.609 35.5379 115.609 32.7191C115.609 29.9002 113.324 27.6151 110.505 27.6151C107.686 27.6151 105.401 29.9002 105.401 32.7191C105.401 35.5379 107.686 37.8231 110.505 37.8231Z" fill="#141720"/>
<path d="M23.0059 93.8881C23.0059 94.7211 22.8719 95.5121 22.6149 96.2631C22.4299 96.8391 22.1729 97.3731 21.8539 97.8771C20.7949 99.5731 19.0679 100.817 17.0419 101.239C16.5899 101.341 16.1059 101.393 15.6229 101.393C15.5819 101.403 15.5309 101.403 15.4899 101.403C11.3359 101.403 7.96387 98.0411 7.96387 93.8871C7.96387 92.6631 8.26187 91.5011 8.77687 90.4841C8.93087 90.1751 9.10587 89.8781 9.31187 89.6001C10.6689 87.6461 12.9309 86.3621 15.4909 86.3621C15.7069 86.3621 15.9229 86.3721 16.1379 86.3931C17.6899 86.5261 19.1099 87.1331 20.2499 88.0691C21.9369 89.4461 23.0059 91.5441 23.0059 93.8881Z" fill="#141720"/>
<path d="M37.1838 105.64C37.1838 108.95 35.0458 111.758 32.0738 112.755C31.6828 112.889 31.2828 112.991 30.8608 113.053C30.4698 113.125 30.0688 113.156 29.6578 113.156C26.1618 113.156 23.2318 110.781 22.3988 107.553C22.3068 107.235 22.2338 106.895 22.2038 106.556C22.1628 106.258 22.1418 105.949 22.1418 105.641C22.1418 103.564 22.9848 101.693 24.3318 100.336C24.4758 100.192 24.6198 100.058 24.7638 99.9451C26.0798 98.7931 27.7868 98.1151 29.6578 98.1151C33.8118 98.1141 37.1838 101.486 37.1838 105.64Z" fill="#141720"/>
<path d="M19.1609 39.4281C19.1609 43.5821 15.7989 46.9541 11.6449 46.9541H11.5729C9.5479 46.9331 7.7069 46.1111 6.3609 44.7741C5.8049 44.2391 5.3329 43.6021 4.9729 42.9031C4.4279 41.8641 4.1189 40.6821 4.1189 39.4281C4.1189 36.3131 6.0209 33.6401 8.7249 32.5091C9.6189 32.1181 10.6069 31.9131 11.6449 31.9131C11.9839 31.9131 12.3129 31.9341 12.6419 31.9851C15.9729 32.4171 18.6049 35.0281 19.0679 38.3491C19.1299 38.6981 19.1609 39.0581 19.1609 39.4281Z" fill="#141720"/>
<path d="M80.7849 19.7621C84.9387 19.7621 88.3059 16.3948 88.3059 12.2411C88.3059 8.08733 84.9387 4.72006 80.7849 4.72006C76.6312 4.72006 73.2639 8.08733 73.2639 12.2411C73.2639 16.3948 76.6312 19.7621 80.7849 19.7621Z" fill="#141720"/>
<path d="M51.4749 10.7431C51.4749 11.7091 51.2899 12.6351 50.9509 13.4881C49.8609 16.284 47.1369 18.2691 43.9489 18.2691C42.1909 18.2691 40.5659 17.6621 39.2909 16.6441C37.6769 15.3791 36.6079 13.467 36.4639 11.288C36.4429 11.113 36.4329 10.9281 36.4329 10.7431C36.4329 10.0751 36.5249 9.41705 36.6999 8.80005C37.5429 5.59205 40.4629 3.22705 43.9479 3.22705C45.1099 3.22705 46.2099 3.49505 47.1869 3.96705C48.5029 4.58405 49.6029 5.57105 50.3539 6.80505C51.0639 7.94605 51.4749 9.29305 51.4749 10.7431Z" fill="#141720"/>
<path d="M15.4289 73.6651C15.4289 75.4541 14.8019 77.0991 13.7529 78.3841C12.3749 80.0901 10.2679 81.1801 7.90294 81.1801C7.17294 81.1801 6.45294 81.0771 5.78494 80.8711C5.26094 80.7271 4.74694 80.5121 4.27394 80.2441C1.96094 78.9691 0.387939 76.5021 0.387939 73.6641C0.387939 71.7421 1.10794 69.9931 2.29994 68.6671C2.59794 68.3071 2.94794 67.9781 3.32794 67.7011C4.59294 66.7141 6.18594 66.1381 7.90294 66.1381C8.72494 66.1381 9.50694 66.2721 10.2469 66.5181C13.2489 67.4961 15.4289 70.3341 15.4289 73.6651Z" fill="#141720"/>
<path d="M101.065 34.8051C105.219 34.8051 108.586 31.4378 108.586 27.2841C108.586 23.1303 105.219 19.7631 101.065 19.7631C96.9112 19.7631 93.5439 23.1303 93.5439 27.2841C93.5439 31.4378 96.9112 34.8051 101.065 34.8051Z" fill="#141720"/>
<path d="M112.11 51.2081C116.264 51.2081 119.632 47.8403 119.632 43.6861C119.632 39.5318 116.264 36.1641 112.11 36.1641C107.956 36.1641 104.588 39.5318 104.588 43.6861C104.588 47.8403 107.956 51.2081 112.11 51.2081Z" fill="#141720"/>
<path d="M36.4329 19.759C36.4329 23.913 33.0609 27.285 28.9069 27.285C28.2999 27.285 27.7139 27.213 27.1489 27.069C24.3729 26.411 22.1929 24.201 21.5659 21.404C21.4419 20.88 21.3809 20.324 21.3809 19.759C21.3809 19.626 21.3809 19.492 21.4019 19.358C21.5969 15.39 24.8869 12.243 28.9069 12.243C29.3489 12.243 29.7909 12.284 30.2129 12.366C31.0969 12.51 31.9299 12.819 32.6699 13.25C34.6129 14.371 36.0009 16.324 36.3409 18.627C36.4029 18.999 36.4329 19.369 36.4329 19.759Z" fill="#141720"/>
<path d="M16.6208 83.884C16.6208 84.768 16.4468 85.621 16.1378 86.393C15.1408 88.85 12.7238 90.588 9.90785 90.588H9.81585C9.45585 90.578 9.11685 90.547 8.77685 90.485C5.60985 89.95 3.19385 87.195 3.19385 83.884C3.19385 82.537 3.58485 81.293 4.27385 80.244C4.55185 79.812 4.88085 79.412 5.26085 79.051C6.46385 77.879 8.09785 77.17 9.90785 77.17C11.3368 77.17 12.6628 77.623 13.7528 78.383C15.4908 79.597 16.6208 81.602 16.6208 83.884Z" fill="#141720"/>
<path d="M22.1419 32.714C22.1419 35.079 20.9179 37.155 19.0679 38.348C18.0189 39.037 16.7649 39.427 15.4279 39.427C13.1559 39.427 11.1509 38.296 9.92687 36.569C9.16587 35.479 8.71387 34.143 8.71387 32.714C8.71387 32.642 8.71387 32.58 8.72387 32.508C8.80687 29.444 10.9659 26.904 13.8339 26.206C14.3379 26.072 14.8729 26.01 15.4279 26.01C15.9629 26.01 16.4869 26.072 16.9809 26.196C19.8799 26.884 22.0489 29.445 22.1319 32.519C22.1419 32.58 22.1419 32.652 22.1419 32.714Z" fill="#141720"/>
<path d="M70.252 15.8521C73.9578 15.8521 76.962 12.8479 76.962 9.14207C76.962 5.43624 73.9578 2.43207 70.252 2.43207C66.5462 2.43207 63.542 5.43624 63.542 9.14207C63.542 12.8479 66.5462 15.8521 70.252 15.8521Z" fill="#141720"/>
<path d="M14.678 56.4951C14.678 57.6161 14.411 58.6641 13.928 59.5901C13.157 61.0811 11.841 62.2431 10.237 62.8081C9.52798 63.0651 8.75698 63.2091 7.96498 63.2091C6.12498 63.2091 4.45899 62.4691 3.24599 61.2661C2.99899 61.0201 2.77298 60.7621 2.57698 60.4851C1.74398 59.3751 1.26099 57.9971 1.26099 56.4961C1.26099 54.6151 2.03198 52.9181 3.28598 51.7051C3.69698 51.2941 4.15999 50.9441 4.66299 50.6661C5.63999 50.1111 6.76099 49.7921 7.96299 49.7921C9.00199 49.7921 9.98798 50.0281 10.862 50.4601C11.808 50.9021 12.631 51.5601 13.268 52.3831C14.154 53.5131 14.678 54.9421 14.678 56.4951Z" fill="#141720"/>
<path d="M116.529 68.8871C120.234 68.8871 123.238 65.8833 123.238 62.1781C123.238 58.4728 120.234 55.4691 116.529 55.4691C112.824 55.4691 109.82 58.4728 109.82 62.1781C109.82 65.8833 112.824 68.8871 116.529 68.8871Z" fill="#141720"/>
<path d="M112.11 87.0791C115.815 87.0791 118.819 84.0753 118.819 80.3701C118.819 76.6648 115.815 73.6611 112.11 73.6611C108.405 73.6611 105.401 76.6648 105.401 80.3701C105.401 84.0753 108.405 87.0791 112.11 87.0791Z" fill="#141720"/>
<path d="M27.242 26.01C27.242 26.37 27.211 26.7301 27.149 27.069C26.738 29.7421 24.733 31.8811 22.132 32.5181C21.618 32.6521 21.083 32.7131 20.528 32.7131C17.968 32.7131 15.737 31.2731 14.616 29.1561C14.133 28.2721 13.855 27.274 13.834 26.205C13.824 26.143 13.824 26.0711 13.824 26.0091C13.824 22.2981 16.826 19.2961 20.528 19.2961C20.826 19.2961 21.114 19.317 21.402 19.358C22.049 19.441 22.677 19.615 23.253 19.882C25.607 20.911 27.242 23.266 27.242 26.01Z" fill="#141720"/>
<path d="M96.222 27.556C99.9278 27.556 102.932 24.5519 102.932 20.846C102.932 17.1402 99.9278 14.136 96.222 14.136C92.5161 14.136 89.512 17.1402 89.512 20.846C89.512 24.5519 92.5161 27.556 96.222 27.556Z" fill="#141720"/>
<path d="M59.803 7.13405C59.803 8.66605 59.289 10.0851 58.415 11.2161C57.191 12.8201 55.269 13.8481 53.1 13.8481C52.349 13.8481 51.62 13.7241 50.951 13.4881C48.453 12.6551 46.623 10.3931 46.407 7.67905C46.396 7.49405 46.386 7.31905 46.386 7.13405C46.386 5.99305 46.674 4.91305 47.188 3.96705C48.309 1.86005 50.54 0.430054 53.1 0.430054C55.269 0.430054 57.192 1.45805 58.415 3.06205C59.032 3.85405 59.474 4.80005 59.68 5.82805C59.762 6.25005 59.803 6.68205 59.803 7.13405Z" fill="#141720"/>
<path d="M115.61 194.625V194.636H6.53491V194.625C6.53491 179.501 12.6829 165.827 22.6359 155.957C23.0059 155.587 23.3759 155.227 23.7569 154.867C25.2779 153.448 26.8719 152.111 28.5379 150.868C29.0519 150.487 29.5759 150.106 30.1009 149.747C31.1809 149.007 32.2909 148.298 33.4219 147.64C33.9569 147.321 34.5019 147.012 35.0469 146.714C35.0569 146.693 35.0779 146.693 35.0779 146.693C35.5199 146.457 35.9519 146.2 36.3839 145.932C36.7129 145.747 37.0309 145.552 37.3399 145.335C38.2859 144.728 39.2109 144.07 40.0849 143.372V143.361C45.0509 139.403 48.8959 134.108 51.0759 128.011C51.8879 125.759 52.4639 123.394 52.7929 120.957C52.9879 119.456 53.0909 117.925 53.0909 116.372L61.0799 116.413L69.2119 116.454C69.2119 117.976 69.3149 119.467 69.4999 120.936C69.8179 123.363 70.3839 125.727 71.1759 127.968C73.3449 134.075 77.1699 139.391 82.1249 143.38C82.4949 143.668 82.8649 143.956 83.2459 144.234C83.2459 144.234 83.2559 144.234 83.2669 144.245C83.5549 144.471 83.8529 144.677 84.1519 144.872C84.2339 144.943 84.3259 145.006 84.4189 145.057C84.5009 145.119 84.5729 145.17 84.6549 145.222C84.6859 145.243 84.7169 145.263 84.7479 145.284C85.0869 145.51 85.4369 145.726 85.7859 145.942C86.2079 146.199 86.6389 146.456 87.0709 146.692C87.1429 146.713 87.2049 146.744 87.2569 146.785C87.7399 147.053 88.2239 147.33 88.6959 147.618C89.3229 147.977 89.9399 148.358 90.5469 148.749C91.6259 149.448 92.6649 150.168 93.6929 150.949H93.7139C95.7899 152.501 97.7539 154.198 99.5839 156.028C109.492 165.899 115.61 179.532 115.61 194.625Z" fill="#B08874"/>
<path d="M115.61 194.625H6.53491C6.53491 179.501 12.6829 165.827 22.6359 155.957C23.0059 155.587 23.3759 155.227 23.7569 154.867C25.2779 153.448 26.8719 152.111 28.5379 150.868C29.0519 150.487 29.5759 150.106 30.1009 149.747C31.1809 149.007 32.2809 148.298 33.4109 147.629C33.9459 147.311 34.4909 147.002 35.0359 146.704C35.0569 146.683 35.0769 146.693 35.0769 146.693V146.683C35.9509 146.2 36.8139 145.675 37.6469 145.12C38.0379 144.863 38.4179 144.596 38.7979 144.308C38.8389 144.288 38.8699 144.256 38.9109 144.236C39.1879 144.03 39.4659 143.814 39.7439 143.589C39.8469 143.506 39.9499 143.424 40.0529 143.342H40.0629C40.0729 143.353 40.0729 143.353 40.0839 143.362C40.7419 144.041 41.4409 144.678 42.1609 145.295C42.1609 145.306 42.1609 145.306 42.1709 145.306C43.9909 146.838 45.9959 148.154 48.1549 149.213C52.0409 151.125 56.4109 152.204 61.0369 152.215H61.1199C69.3449 152.215 76.7789 148.821 82.1239 143.383L82.1349 143.373L82.1449 143.362C82.5259 143.68 82.9159 143.979 83.3179 144.277C83.5849 144.483 83.8629 144.678 84.1509 144.874C84.2329 144.936 84.3249 144.997 84.4179 145.059C84.4999 145.121 84.5719 145.172 84.6539 145.224C84.6849 145.245 84.7159 145.265 84.7469 145.286C85.0859 145.512 85.4359 145.728 85.7849 145.944C86.2069 146.201 86.6379 146.447 87.0699 146.684C87.1419 146.705 87.1939 146.746 87.2559 146.776C87.7389 147.044 88.2329 147.321 88.7049 147.609C89.3329 147.979 89.9489 148.36 90.5459 148.751C91.6249 149.439 92.6639 150.17 93.6919 150.94H93.7129C95.7889 152.493 97.7529 154.2 99.5829 156.03C109.492 165.899 115.61 179.532 115.61 194.625Z" fill="#C25443"/>
<path d="M88.7029 147.608L88.6929 147.619L87.5719 148.76C80.5189 155.946 71.1119 159.895 61.0769 159.906C61.0669 159.906 61.0669 159.906 61.0559 159.906C50.9079 159.885 41.5109 155.917 34.4889 148.74L33.4199 147.64L33.4099 147.629C33.9449 147.311 34.4899 147.002 35.0349 146.704C35.0559 146.683 35.0759 146.693 35.0759 146.693V146.683C35.5179 146.436 35.9499 146.189 36.3819 145.932C36.6999 145.737 37.0189 145.541 37.3379 145.335C37.4409 145.264 37.5439 145.191 37.6469 145.119C38.0379 144.862 38.4279 144.595 38.7979 144.307C38.8389 144.287 38.8699 144.255 38.9109 144.235C39.1879 144.019 39.4759 143.803 39.7439 143.588C39.8469 143.505 39.9499 143.423 40.0529 143.341C40.0629 143.352 40.0629 143.352 40.0729 143.361H40.0829V143.372C40.7409 144.05 41.4299 144.687 42.1599 145.294C42.1599 145.305 42.1599 145.305 42.1699 145.305C43.9899 146.837 45.9949 148.163 48.1539 149.212C52.0399 151.124 56.4099 152.203 61.0359 152.214H61.1189C69.3439 152.214 76.7779 148.82 82.1229 143.382L82.1339 143.372L82.1439 143.361C82.5039 143.659 82.8639 143.947 83.2449 144.235C83.2449 144.235 83.2549 144.235 83.2659 144.246C83.2769 144.256 83.2969 144.266 83.3179 144.276C83.5849 144.482 83.8629 144.677 84.1509 144.873C84.2329 144.935 84.3249 144.996 84.4179 145.058C84.4999 145.12 84.5719 145.171 84.6539 145.223C84.6849 145.244 84.7159 145.264 84.7469 145.285C85.0859 145.511 85.4359 145.727 85.7849 145.943C86.2069 146.2 86.6379 146.446 87.0699 146.683C87.1419 146.704 87.1939 146.745 87.2559 146.775C87.7379 147.043 88.2309 147.32 88.7029 147.608Z" fill="#543E36"/>
<path d="M102.933 53.4111V77.9211C102.933 80.2241 102.769 82.4961 102.46 84.7271C101.709 90.2791 100.054 95.5541 97.7719 100.416C97.1039 101.845 96.3839 103.244 95.6129 104.601C95.4379 104.91 95.2629 105.218 95.0879 105.516C93.5249 108.148 91.7879 110.636 89.9269 112.929C89.4539 113.526 88.9609 114.112 88.4569 114.677C83.1829 120.733 77.0549 125.349 71.1739 127.97C67.6479 129.533 64.1929 130.387 61.0779 130.387C57.9829 130.387 54.5699 129.554 51.0739 128.012C45.1619 125.4 38.9929 120.763 33.6779 114.677C33.1329 114.049 32.5979 113.412 32.0739 112.754C29.6789 109.773 27.4889 106.483 25.6279 102.956C25.1749 102.092 24.7439 101.219 24.3329 100.334C24.0859 99.8101 23.8499 99.2751 23.6239 98.7401C23.2639 97.9281 22.9349 97.0951 22.6159 96.2621C21.6289 93.6301 20.8269 90.8851 20.2509 88.0681C20.0249 86.9681 19.8299 85.8571 19.6859 84.7261C19.3769 82.4951 19.2129 80.2231 19.2129 77.9201V53.4101H102.933V53.4111Z" fill="#B08874"/>
<path d="M18.188 84.9371C21.26 84.9371 23.75 82.4471 23.75 79.3751V52.6691H18.188V84.9371Z" fill="#141720"/>
<path d="M98.3989 52.6691H103.96V84.9381C100.889 84.9381 98.3989 82.4481 98.3989 79.3761V52.6691Z" fill="#141720"/>
<path d="M50.66 61.0961C54.3658 61.0961 57.37 58.0919 57.37 54.3861C57.37 50.6802 54.3658 47.6761 50.66 47.6761C46.9541 47.6761 43.95 50.6802 43.95 54.3861C43.95 58.0919 46.9541 61.0961 50.66 61.0961Z" fill="#141720"/>
<path d="M35.1451 59.577C38.8509 59.577 41.8551 56.5729 41.8551 52.867C41.8551 49.1612 38.8509 46.157 35.1451 46.157C31.4392 46.157 28.4351 49.1612 28.4351 52.867C28.4351 56.5729 31.4392 59.577 35.1451 59.577Z" fill="#141720"/>
<path d="M19.2159 62.1791C22.9217 62.1791 25.9259 59.1749 25.9259 55.4691C25.9259 51.7632 22.9217 48.7591 19.2159 48.7591C15.51 48.7591 12.5059 51.7632 12.5059 55.4691C12.5059 59.1749 15.51 62.1791 19.2159 62.1791Z" fill="#141720"/>
<path d="M70.252 60.37C73.9578 60.37 76.962 57.3659 76.962 53.66C76.962 49.9542 73.9578 46.95 70.252 46.95C66.5462 46.95 63.542 49.9542 63.542 53.66C63.542 57.3659 66.5462 60.37 70.252 60.37Z" fill="#141720"/>
<path d="M90.5401 60.37C94.2459 60.37 97.2501 57.3659 97.2501 53.66C97.2501 49.9542 94.2459 46.95 90.5401 46.95C86.8342 46.95 83.8301 49.9542 83.8301 53.66C83.8301 57.3659 86.8342 60.37 90.5401 60.37Z" fill="#141720"/>
<path d="M104.461 66.726C108.166 66.726 111.17 63.7223 111.17 60.017C111.17 56.3118 108.166 53.308 104.461 53.308C100.756 53.308 97.752 56.3118 97.752 60.017C97.752 63.7223 100.756 66.726 104.461 66.726Z" fill="#141720"/>
<path d="M61.074 59.995C63.8928 59.995 66.178 57.7099 66.178 54.891C66.178 52.0722 63.8928 49.787 61.074 49.787C58.2551 49.787 55.97 52.0722 55.97 54.891C55.97 57.7099 58.2551 59.995 61.074 59.995Z" fill="#141720"/>
<path d="M26.489 59.49C29.3079 59.49 31.593 57.2049 31.593 54.386C31.593 51.5672 29.3079 49.282 26.489 49.282C23.6701 49.282 21.385 51.5672 21.385 54.386C21.385 57.2049 23.6701 59.49 26.489 59.49Z" fill="#141720"/>
<path d="M43.9499 59.49C46.7688 59.49 49.0539 57.2049 49.0539 54.386C49.0539 51.5672 46.7688 49.282 43.9499 49.282C41.1311 49.282 38.8459 51.5672 38.8459 54.386C38.8459 57.2049 41.1311 59.49 43.9499 59.49Z" fill="#141720"/>
<path d="M80.7849 61.0951C83.6038 61.0951 85.8889 58.8099 85.8889 55.9911C85.8889 53.1722 83.6038 50.8871 80.7849 50.8871C77.9661 50.8871 75.6809 53.1722 75.6809 55.9911C75.6809 58.8099 77.9661 61.0951 80.7849 61.0951Z" fill="#141720"/>
<path d="M97.25 61.0951C100.069 61.0951 102.354 58.8099 102.354 55.9911C102.354 53.1722 100.069 50.8871 97.25 50.8871C94.4311 50.8871 92.146 53.1722 92.146 55.9911C92.146 58.8099 94.4311 61.0951 97.25 61.0951Z" fill="#141720"/>
<path d="M96.302 66.0941C96.302 65.9301 96.178 65.7861 96.014 65.7651C94.595 65.5491 88.231 64.6751 81.394 64.6751C73.622 64.6751 63.597 67.1111 61.849 67.1111H60.296C59.484 67.1111 56.873 66.5761 53.531 66.0211C49.696 65.3741 44.904 64.6741 40.761 64.6741C35.754 64.6741 30.993 65.1471 28.259 65.4761C27.252 65.6001 26.522 65.7021 26.141 65.7641C25.966 65.7851 25.843 65.9291 25.843 66.0931L25.761 70.2671C25.761 70.4211 25.853 70.5451 25.987 70.6061L26.46 70.7711C27.159 71.0381 27.098 83.6121 30.851 86.7581C33.082 88.6091 35.066 89.6681 43.414 89.6681C48.257 89.6681 51.3 88.3621 54.189 84.4661C56.276 81.6701 58.117 75.0481 58.117 75.0481C58.682 72.3231 60.708 72.1071 61.036 72.0871C61.057 72.0871 61.078 72.0871 61.078 72.0871C61.14 72.0871 63.432 72.1281 64.029 75.0481C64.029 75.0481 65.88 81.6691 67.957 84.4661C70.846 88.3621 73.889 89.6681 78.731 89.6681C87.08 89.6681 89.064 88.6091 91.294 86.7581C95.047 83.6121 94.985 71.0381 95.685 70.7711L96.158 70.6061C96.292 70.5441 96.384 70.4211 96.384 70.2671L96.302 66.0941Z" fill="#1A1A1A"/>
<path d="M111.233 97.4331C115.387 97.4331 118.754 94.0658 118.754 89.9121C118.754 85.7583 115.387 82.3911 111.233 82.3911C107.079 82.3911 103.712 85.7583 103.712 89.9121C103.712 94.0658 107.079 97.4331 111.233 97.4331Z" fill="#141720"/>
<path d="M118.754 57.8661C121.573 57.8661 123.858 55.5809 123.858 52.7621C123.858 49.9432 121.573 47.6581 118.754 47.6581C115.935 47.6581 113.65 49.9432 113.65 52.7621C113.65 55.5809 115.935 57.8661 118.754 57.8661Z" fill="#141720"/>
<path d="M117.56 77.0831C120.379 77.0831 122.664 74.7979 122.664 71.9791C122.664 69.1602 120.379 66.8751 117.56 66.8751C114.741 66.8751 112.456 69.1602 112.456 71.9791C112.456 74.7979 114.741 77.0831 117.56 77.0831Z" fill="#141720"/>
</svg>
