<svg viewBox="0 0 110 186" fill="none" xmlns="http://www.w3.org/2000/svg">
<path d="M109.571 185.628V185.638H0.506104V185.628C0.506104 170.504 6.6531 156.819 16.5961 146.949C17.0591 146.486 17.5221 146.044 18.0041 145.602C19.4341 144.276 20.9351 143.032 22.4971 141.87C23.5251 141.099 24.5951 140.379 25.6741 139.681C26.7541 138.982 27.8641 138.324 29.0051 137.706C29.0261 137.685 29.0471 137.685 29.0471 137.685C29.4881 137.438 29.9201 137.192 30.3531 136.924C31.6481 136.163 32.8721 135.3 34.0431 134.364C39.0091 130.416 42.8551 125.11 45.0441 119.024V119.013C46.3501 115.384 47.0601 111.467 47.0601 107.374L63.1811 107.446C63.1811 111.486 63.8691 115.373 65.1451 118.971C67.3141 125.088 71.1391 130.404 76.1051 134.372C76.4441 134.649 76.7931 134.917 77.1431 135.174C77.6261 135.534 78.1201 135.884 78.6131 136.213C78.9831 136.459 79.3641 136.706 79.7451 136.933C80.1661 137.19 80.5981 137.447 81.0301 137.683C81.0711 137.694 81.1011 137.704 81.1331 137.724C81.1631 137.744 81.1951 137.765 81.2261 137.785C82.4911 138.484 83.7241 139.224 84.9161 140.006C85.3171 140.264 85.7181 140.53 86.1081 140.809C86.6231 141.179 87.1471 141.549 87.6511 141.94H87.6721C100.965 151.874 109.571 167.728 109.571 185.628Z" fill="#A57561"/>
<path d="M109.571 185.628H0.506104C0.506104 170.504 6.6531 156.819 16.5961 146.949C17.0591 146.486 17.5221 146.044 18.0041 145.602C19.4341 144.276 20.9351 143.021 22.4971 141.86C23.5251 141.098 24.5951 140.369 25.6741 139.68C26.7541 138.981 27.8641 138.323 29.0051 137.705C29.0261 137.684 29.0471 137.684 29.0471 137.684C29.4881 137.437 29.9201 137.191 30.3531 136.923C31.6481 136.162 32.8721 135.299 34.0431 134.363C39.3901 139.832 46.8331 143.215 55.0891 143.215C63.3151 143.215 70.7581 139.822 76.1051 134.373C76.4441 134.65 76.7931 134.918 77.1431 135.175C77.6261 135.535 78.1201 135.885 78.6131 136.214C78.9831 136.46 79.3641 136.707 79.7451 136.934C80.1661 137.201 80.5981 137.448 81.0301 137.684C81.0711 137.695 81.1011 137.705 81.1331 137.725C81.1631 137.736 81.1951 137.756 81.2261 137.777C82.4911 138.476 83.7241 139.216 84.9161 140.007C85.3171 140.265 85.7181 140.531 86.1081 140.81C86.6231 141.18 87.1471 141.55 87.6511 141.941H87.6721C100.965 151.874 109.571 167.728 109.571 185.628Z" fill="#619AB0"/>
<path d="M13.1821 34.809V68.926C13.1821 97.903 38.6191 121.392 55.0391 121.392C71.4601 121.392 96.8971 97.903 96.8971 68.926V34.809H13.1821Z" fill="#A57561"/>
<path d="M13.1821 64.822C15.2451 64.822 16.9161 63.151 16.9161 61.089V37.355H13.1821V64.822Z" fill="#141720"/>
<path d="M96.898 64.822V37.355H93.165V61.089C93.164 63.151 94.835 64.822 96.898 64.822Z" fill="#141720"/>
<path d="M96.892 36.329C96.892 41.213 96.564 42.39 93.158 42.13C93.021 39.763 76.017 37.834 55.047 37.834C34.062 37.834 17.058 39.763 16.921 42.13C13.515 42.39 13.187 41.213 13.187 36.329C13.187 35.85 13.201 35.345 13.214 34.81C13.734 22.758 20.532 0.228027 55.047 0.228027C89.547 0.228027 96.346 22.758 96.865 34.81C96.878 35.345 96.892 35.851 96.892 36.329Z" fill="#141720"/>
<path d="M76.1052 134.118C72.5882 144.944 65.5042 155.657 55.0692 164.417C44.6332 155.657 37.5602 144.944 34.0442 134.118C34.0962 134.138 34.1572 134.159 34.2092 134.179C39.7402 139.134 47.0612 142.158 55.0692 142.158C63.0782 142.158 70.3882 139.145 75.9202 134.19C75.9812 134.169 76.0432 134.139 76.1052 134.118Z" fill="white"/>
</svg>
