<svg viewBox="0 0 110 195" fill="none" xmlns="http://www.w3.org/2000/svg">
<path d="M19.416 143.553C19.416 147.532 17.843 150.955 15.591 152.395C14.861 152.869 14.059 153.125 13.216 153.125C12.373 153.125 11.571 152.868 10.841 152.395C8.58899 150.956 7.01599 147.533 7.01599 143.553C7.01599 141.487 7.43699 139.564 8.17799 138.001C9.28799 135.564 11.129 133.981 13.216 133.981C15.303 133.981 17.143 135.564 18.254 138.001C18.995 139.563 19.416 141.486 19.416 143.553Z" fill="#141720"/>
<path d="M19.416 132.438C19.416 134.515 18.995 136.438 18.254 138.001C17.133 140.428 15.293 142.001 13.216 142.001C11.139 142.001 9.29899 140.428 8.17799 138.001C7.43799 136.438 7.01599 134.516 7.01599 132.438C7.01599 130.362 7.43699 128.439 8.17799 126.876C9.29899 124.449 11.139 122.866 13.216 122.866C15.293 122.866 17.133 124.449 18.254 126.876C18.995 128.439 19.416 130.362 19.416 132.438Z" fill="#141720"/>
<path d="M19.416 121.314C19.416 123.391 18.995 125.313 18.254 126.876C17.133 129.302 15.293 130.886 13.216 130.886C11.139 130.886 9.29899 129.302 8.17799 126.876C7.43799 125.313 7.01599 123.391 7.01599 121.314C7.01599 119.248 7.43699 117.325 8.17799 115.762C9.28799 113.325 11.129 111.741 13.216 111.741C15.303 111.741 17.143 113.325 18.254 115.762C18.995 117.325 19.416 119.248 19.416 121.314Z" fill="#141720"/>
<path d="M19.416 110.2C19.416 112.277 18.995 114.199 18.254 115.763C17.133 118.189 15.293 119.773 13.216 119.773C11.139 119.773 9.29899 118.189 8.17799 115.763C7.43799 114.2 7.01599 112.278 7.01599 110.2C7.01599 108.134 7.43699 106.211 8.17799 104.648C9.28799 102.211 11.129 100.627 13.216 100.627C15.303 100.627 17.143 102.211 18.254 104.648C18.995 106.211 19.416 108.134 19.416 110.2Z" fill="#141720"/>
<path d="M19.416 99.076C19.416 100.166 19.303 101.214 19.077 102.191C18.882 103.075 18.604 103.908 18.254 104.648C17.133 107.074 15.293 108.647 13.216 108.647C11.139 108.647 9.29899 107.074 8.17799 104.648C7.43799 103.085 7.01599 101.163 7.01599 99.076C7.01599 97.01 7.43699 95.087 8.17799 93.523C9.28799 91.097 11.129 89.513 13.216 89.513C13.678 89.513 14.12 89.596 14.552 89.74C16.084 90.254 17.389 91.632 18.253 93.523C18.995 95.087 19.416 97.01 19.416 99.076Z" fill="#141720"/>
<path d="M19.416 87.962C19.416 90.038 18.995 91.961 18.254 93.524C17.781 94.563 17.164 95.447 16.455 96.116C15.509 97.02 14.399 97.534 13.217 97.534C11.14 97.534 9.29997 95.951 8.17897 93.524C7.43897 91.961 7.01697 90.039 7.01697 87.962C7.01697 85.896 7.43797 83.973 8.17897 82.41C9.28897 79.972 11.13 78.389 13.217 78.389C15.304 78.389 17.144 79.972 18.255 82.41C18.995 83.972 19.416 85.895 19.416 87.962Z" fill="#141720"/>
<path d="M19.416 76.847C19.416 76.96 19.416 77.074 19.406 77.176C19.365 79.129 18.954 80.929 18.255 82.409C17.258 84.567 15.695 86.058 13.885 86.356C13.669 86.397 13.443 86.419 13.217 86.419C11.14 86.419 9.29997 84.835 8.17897 82.409C7.43897 80.846 7.01697 78.924 7.01697 76.846C7.01697 74.769 7.43797 72.846 8.17897 71.283C8.59997 70.368 9.12497 69.566 9.73197 68.929C10.729 67.88 11.932 67.274 13.217 67.274C15.294 67.274 17.134 68.858 18.255 71.284C18.995 72.847 19.416 74.77 19.416 76.847Z" fill="#141720"/>
<path d="M19.416 65.722C19.416 67.799 18.995 69.722 18.254 71.285C17.257 73.455 15.673 74.956 13.854 75.243C13.844 75.233 13.844 75.243 13.844 75.243C13.639 75.274 13.433 75.295 13.217 75.295C11.14 75.295 9.29997 73.712 8.17897 71.285C7.43897 69.722 7.01697 67.8 7.01697 65.722C7.01697 64.52 7.16097 63.358 7.42797 62.299C8.32197 58.71 10.574 56.16 13.217 56.16C16.64 56.161 19.416 60.438 19.416 65.722Z" fill="#141720"/>
<path d="M19.283 164.568H7.15002L10.842 152.394L13.217 144.55L15.591 152.394L16.743 156.178L19.283 164.568Z" fill="#141720"/>
<path d="M96.9391 153.122C100.362 153.122 103.137 148.837 103.137 143.552C103.137 138.267 100.362 133.982 96.9391 133.982C93.516 133.982 90.7411 138.267 90.7411 143.552C90.7411 148.837 93.516 153.122 96.9391 153.122Z" fill="#141720"/>
<path d="M96.9391 142.003C100.362 142.003 103.137 137.718 103.137 132.433C103.137 127.148 100.362 122.863 96.9391 122.863C93.516 122.863 90.7411 127.148 90.7411 132.433C90.7411 137.718 93.516 142.003 96.9391 142.003Z" fill="#141720"/>
<path d="M96.9391 130.885C100.362 130.885 103.137 126.601 103.137 121.316C103.137 116.031 100.362 111.747 96.9391 111.747C93.516 111.747 90.7411 116.031 90.7411 121.316C90.7411 126.601 93.516 130.885 96.9391 130.885Z" fill="#141720"/>
<path d="M96.9391 119.768C100.362 119.768 103.137 115.483 103.137 110.198C103.137 104.913 100.362 100.628 96.9391 100.628C93.516 100.628 90.7411 104.913 90.7411 110.198C90.7411 115.483 93.516 119.768 96.9391 119.768Z" fill="#141720"/>
<path d="M96.9391 108.65C100.362 108.65 103.137 104.365 103.137 99.08C103.137 93.7947 100.362 89.51 96.9391 89.51C93.516 89.51 90.7411 93.7947 90.7411 99.08C90.7411 104.365 93.516 108.65 96.9391 108.65Z" fill="#141720"/>
<path d="M96.9391 97.532C100.362 97.532 103.137 93.2478 103.137 87.963C103.137 82.6782 100.362 78.394 96.9391 78.394C93.516 78.394 90.7411 82.6782 90.7411 87.963C90.7411 93.2478 93.516 97.532 96.9391 97.532Z" fill="#141720"/>
<path d="M96.9391 86.414C100.362 86.414 103.137 82.1294 103.137 76.844C103.137 71.5586 100.362 67.274 96.9391 67.274C93.516 67.274 90.7411 71.5586 90.7411 76.844C90.7411 82.1294 93.516 86.414 96.9391 86.414Z" fill="#141720"/>
<path d="M96.9391 75.296C100.362 75.296 103.137 71.0114 103.137 65.726C103.137 60.4406 100.362 56.156 96.9391 56.156C93.516 56.156 90.7411 60.4406 90.7411 65.726C90.7411 71.0114 93.516 75.296 96.9391 75.296Z" fill="#141720"/>
<path d="M96.939 144.545L90.874 164.569H96.802H97.077H103.005L96.939 144.545Z" fill="#141720"/>
<path d="M109.614 194.949V194.96H0.540039V194.949C0.540039 188.791 1.55804 182.858 3.45004 177.338C3.78904 176.34 4.15904 175.354 4.56004 174.376V174.366C4.95104 173.389 5.38304 172.433 5.83504 171.487C6.97604 169.082 8.30304 166.768 9.78304 164.568C10.626 163.313 11.531 162.08 12.477 160.897C13.135 160.084 13.803 159.293 14.492 158.533C14.831 158.142 15.191 157.762 15.551 157.381C15.911 157.011 16.271 156.641 16.641 156.272C16.672 156.241 16.713 156.2 16.744 156.179C18.554 154.369 20.496 152.714 22.532 151.193C23.571 150.422 24.619 149.702 25.709 149.002C25.843 148.909 25.986 148.827 26.13 148.745C27.076 148.139 28.043 147.573 29.029 147.038C29.039 147.028 29.05 147.028 29.06 147.028C29.07 147.028 29.07 147.028 29.07 147.028L29.08 147.017C29.44 146.832 29.79 146.626 30.139 146.4C30.221 146.359 30.293 146.318 30.376 146.267C30.664 146.092 30.952 145.907 31.239 145.722C31.332 145.659 31.424 145.598 31.516 145.547C31.763 145.382 32.01 145.218 32.257 145.032C32.565 144.827 32.874 144.6 33.172 144.375C33.172 144.364 33.172 144.364 33.182 144.375C33.48 144.158 33.778 143.933 34.066 143.696L34.076 143.685C35.793 142.318 37.387 140.786 38.816 139.11C40.102 137.609 41.263 135.995 42.271 134.278C43.392 132.407 44.338 130.423 45.078 128.345C45.448 127.296 45.777 126.227 46.044 125.127C46.25 124.356 46.414 123.574 46.558 122.782C46.908 120.808 47.093 118.773 47.093 116.696L55.04 116.737H55.081L56.468 116.748L63.213 116.778C63.213 118.814 63.388 120.808 63.727 122.752C63.861 123.554 64.036 124.346 64.242 125.127C64.499 126.206 64.817 127.266 65.178 128.293C65.918 130.391 66.854 132.396 67.974 134.277C68.889 135.84 69.928 137.31 71.079 138.698C72.58 140.539 74.276 142.204 76.138 143.695C76.406 143.92 76.672 144.136 76.95 144.332C77.033 144.404 77.126 144.466 77.218 144.527C77.225 144.532 77.233 144.54 77.24 144.545C77.39 144.657 77.541 144.777 77.691 144.876C77.937 145.041 78.173 145.216 78.42 145.38C78.502 145.441 78.574 145.493 78.656 145.545C78.842 145.668 79.026 145.791 79.212 145.915C79.407 146.038 79.592 146.151 79.787 146.265C80.003 146.388 80.209 146.522 80.425 146.645C80.63 146.779 80.847 146.902 81.063 147.015C81.134 147.036 81.186 147.077 81.247 147.108L81.587 147.293C81.658 147.335 81.731 147.376 81.792 147.417C82.069 147.571 82.337 147.726 82.605 147.88C83.047 148.137 83.499 148.404 83.931 148.682C84.353 148.939 84.774 149.206 85.185 149.504C86.039 150.049 86.872 150.646 87.684 151.262C87.684 151.273 87.694 151.273 87.694 151.273H87.705C88.743 152.043 89.751 152.867 90.738 153.709C91.663 154.501 92.548 155.323 93.411 156.187C93.473 156.239 93.524 156.291 93.586 156.352C96.105 158.86 98.377 161.605 100.361 164.567C106.211 173.245 109.614 183.691 109.614 194.949Z" fill="#DFB28B"/>
<path d="M109.614 194.949H0.540039C0.540039 188.791 1.55804 182.858 3.45004 177.338C3.78904 176.34 4.15904 175.354 4.56004 174.376V174.366C4.95104 173.389 5.38304 172.433 5.83504 171.487C6.97604 169.082 8.30304 166.768 9.78304 164.568C10.626 163.313 11.531 162.08 12.477 160.897C13.135 160.084 13.803 159.293 14.492 158.533C14.831 158.142 15.191 157.762 15.551 157.381C15.911 157.011 16.271 156.641 16.641 156.272C16.672 156.241 16.713 156.2 16.744 156.179C18.554 154.369 20.496 152.714 22.532 151.193C23.571 150.422 24.619 149.702 25.709 149.002C25.843 148.909 25.986 148.827 26.13 148.745C27.076 148.139 28.043 147.573 29.029 147.038C29.029 147.028 29.039 147.028 29.039 147.028C29.049 147.017 29.049 147.017 29.06 147.028C29.07 147.028 29.07 147.028 29.07 147.028V147.017H29.08C29.44 146.812 29.79 146.606 30.139 146.4C30.221 146.359 30.293 146.318 30.376 146.267C30.664 146.092 30.952 145.907 31.239 145.722C31.516 145.536 31.794 145.341 32.072 145.157C32.185 145.074 32.299 144.992 32.412 144.91C32.669 144.735 32.926 144.55 33.173 144.365C33.194 144.344 33.224 144.324 33.245 144.313C33.512 144.108 33.78 143.892 34.047 143.675L34.058 143.665C34.068 143.675 34.068 143.675 34.078 143.685C34.665 144.282 35.261 144.857 35.898 145.402C36.207 145.67 36.525 145.926 36.844 146.183C36.854 146.203 36.854 146.203 36.865 146.194C37.163 146.43 37.451 146.657 37.749 146.882C37.821 146.934 37.882 146.986 37.955 147.027C38.263 147.243 38.572 147.459 38.88 147.664C39.579 148.127 40.299 148.559 41.028 148.96C41.399 149.166 41.769 149.361 42.149 149.546C42.529 149.741 42.92 149.916 43.321 150.081C43.372 150.122 43.424 150.142 43.475 150.152C44.359 150.533 45.264 150.872 46.189 151.171C46.539 151.283 46.888 151.387 47.248 151.479C47.566 151.562 47.885 151.644 48.204 151.726C48.276 151.757 48.348 151.767 48.43 151.778C49.468 152.014 50.537 152.199 51.628 152.333C51.998 152.374 52.368 152.416 52.749 152.446C53.51 152.508 54.27 152.539 55.042 152.539H55.124C55.35 152.539 55.576 152.539 55.802 152.528C55.915 152.539 56.029 152.539 56.142 152.518C56.254 152.518 56.358 152.507 56.47 152.498C56.953 152.477 57.427 152.446 57.9 152.405C58.311 152.364 58.722 152.312 59.124 152.26C59.237 152.26 59.34 152.25 59.442 152.219C59.76 152.178 60.069 152.117 60.378 152.066C60.502 152.055 60.625 152.035 60.748 151.994C60.975 151.953 61.2 151.901 61.416 151.86C61.643 151.819 61.858 151.767 62.074 151.706C62.527 151.593 62.979 151.479 63.421 151.346C63.863 151.213 64.306 151.079 64.737 150.925C65.2 150.781 65.641 150.607 66.084 150.421C66.3 150.339 66.516 150.257 66.722 150.164C67.781 149.712 68.799 149.197 69.786 148.611C70.136 148.416 70.475 148.21 70.814 148.005C71.04 147.86 71.256 147.717 71.472 147.563C71.657 147.44 71.842 147.317 72.017 147.193C72.387 146.936 72.747 146.669 73.107 146.391C73.466 146.114 73.816 145.826 74.156 145.537C74.844 144.962 75.503 144.345 76.13 143.707L76.151 143.686C76.501 143.974 76.861 144.251 77.22 144.529C77.227 144.534 77.235 144.542 77.242 144.547C77.286 144.58 77.33 144.611 77.374 144.644C77.394 144.657 77.414 144.666 77.436 144.683C77.755 144.919 78.083 145.157 78.423 145.382C78.505 145.443 78.577 145.495 78.659 145.547C79.029 145.793 79.41 146.03 79.79 146.267C80.212 146.524 80.644 146.771 81.075 147.007C81.147 147.027 81.199 147.068 81.261 147.099C81.373 147.162 81.487 147.233 81.59 147.294C81.661 147.336 81.734 147.377 81.795 147.418C82.072 147.572 82.34 147.727 82.608 147.881C83.05 148.138 83.502 148.405 83.934 148.683C84.356 148.94 84.777 149.207 85.188 149.505C86.042 150.05 86.875 150.647 87.687 151.263H87.708C88.746 152.044 89.765 152.857 90.741 153.71C91.666 154.502 92.551 155.324 93.414 156.188C93.476 156.24 93.527 156.292 93.589 156.353C96.108 158.861 98.38 161.606 100.364 164.568C106.211 173.245 109.614 183.691 109.614 194.949Z" fill="#333333"/>
<path d="M55.165 152.549L55.134 152.601L55.124 152.621C55.103 152.642 55.093 152.673 55.073 152.693C52.174 157.144 47.392 159.468 42.581 159.468C38.643 159.468 34.685 157.915 31.714 154.728L26.131 148.745C27.077 148.139 28.044 147.573 29.03 147.038C29.04 147.028 29.051 147.028 29.061 147.028C29.071 147.028 29.071 147.028 29.071 147.028V147.017H29.081C29.441 146.812 29.791 146.606 30.14 146.4C30.222 146.359 30.294 146.318 30.377 146.267C30.665 146.092 30.953 145.907 31.24 145.722C31.333 145.659 31.425 145.598 31.517 145.547C31.703 145.413 31.888 145.289 32.072 145.156C32.134 145.114 32.196 145.073 32.258 145.032C32.566 144.816 32.875 144.6 33.173 144.375C33.173 144.364 33.173 144.364 33.183 144.375C33.204 144.344 33.224 144.333 33.245 144.312C33.512 144.107 33.78 143.891 34.047 143.674C34.058 143.685 34.058 143.685 34.068 143.695C34.654 144.291 35.26 144.867 35.898 145.401C36.207 145.678 36.525 145.946 36.844 146.182C36.854 146.202 36.854 146.202 36.865 146.193C37.152 146.44 37.451 146.666 37.749 146.881C37.821 146.933 37.882 146.985 37.955 147.026C38.253 147.252 38.561 147.467 38.88 147.663C39.569 148.137 40.288 148.568 41.028 148.959C41.399 149.165 41.769 149.36 42.149 149.545C42.54 149.74 42.93 149.915 43.321 150.08C43.372 150.121 43.424 150.141 43.475 150.151C44.359 150.542 45.264 150.871 46.189 151.17C46.539 151.282 46.888 151.386 47.248 151.478C47.566 151.571 47.885 151.653 48.204 151.725C48.276 151.756 48.348 151.766 48.43 151.777C49.468 152.034 50.537 152.218 51.628 152.332C51.998 152.384 52.368 152.425 52.749 152.445C53.499 152.517 54.26 152.548 55.031 152.548H55.165V152.549Z" fill="#E7ECF2"/>
<path d="M84.129 148.824L78.628 154.725C75.656 157.913 71.698 159.465 67.75 159.465C62.918 159.465 58.106 157.12 55.217 152.617L55.207 152.596L55.166 152.544C63.37 152.534 70.794 149.142 76.13 143.702L76.14 143.692C76.87 144.299 77.631 144.864 78.412 145.388C78.494 145.45 78.566 145.501 78.648 145.552C79.018 145.799 79.399 146.035 79.779 146.272C80.201 146.529 80.633 146.776 81.064 147.012C81.136 147.032 81.188 147.074 81.25 147.105C82.154 147.609 83.049 148.133 83.923 148.688C83.995 148.731 84.057 148.772 84.129 148.824Z" fill="#E7ECF2"/>
<path d="M84.2091 28.206C84.2091 35.187 82.8111 41.829 80.2711 47.885C75.4081 59.462 66.3811 68.869 55.0721 74.226C48.4711 77.352 41.0991 79.1 33.3161 79.1C28.4941 79.1 23.8261 78.431 19.4051 77.177C17.5031 76.632 15.6531 75.985 13.8531 75.243C13.8431 75.233 13.8431 75.243 13.8431 75.243C13.6271 75.151 13.4221 75.058 13.2161 74.966C13.0411 74.895 12.8771 74.822 12.7121 74.75C11.6021 72.89 10.6051 70.946 9.73106 68.931C8.81606 66.803 8.04407 64.582 7.42807 62.3C6.32807 58.218 5.74207 53.9 5.74207 49.469C5.74207 22.234 27.8261 0.14901 55.0721 0.14901C63.9141 0.14901 72.2111 2.47301 79.3871 6.55401C79.6951 7.20201 79.9831 7.86001 80.2711 8.52901C81.2171 10.77 81.9881 13.084 82.6051 15.468C83.6541 19.539 84.2091 23.805 84.2091 28.206Z" fill="#141720"/>
<path d="M104.392 49.469C104.392 57.149 102.634 64.417 99.508 70.895C90.995 65.364 84.24 57.355 80.272 47.885C77.722 41.829 76.324 35.188 76.324 28.206C76.324 21.226 77.722 14.584 80.272 8.52801C80.436 8.13701 80.601 7.75701 80.776 7.36601C94.933 16.033 104.392 31.65 104.392 49.469Z" fill="#141720"/>
<path d="M96.938 46.99V78.389C96.938 78.8 96.928 79.202 96.918 79.613C96.908 79.983 96.897 80.342 96.877 80.713C96.866 81.042 96.846 81.371 96.815 81.7C96.804 81.936 96.784 82.173 96.763 82.41C96.753 82.554 96.743 82.687 96.722 82.831C96.702 83.088 96.681 83.356 96.64 83.612C96.599 84.106 96.536 84.59 96.465 85.083C96.454 85.206 96.434 85.33 96.413 85.453C96.383 85.7 96.341 85.946 96.3 86.193V86.224C96.29 86.275 96.279 86.316 96.279 86.368C96.218 86.677 96.166 86.985 96.115 87.293C96.022 87.787 95.929 88.28 95.827 88.764C95.816 88.785 95.816 88.805 95.807 88.826C95.796 88.898 95.786 88.971 95.766 89.042C95.755 89.063 95.755 89.083 95.745 89.104C95.704 89.32 95.652 89.537 95.6 89.742C95.59 89.794 95.58 89.835 95.57 89.887C95.55 89.999 95.529 90.113 95.488 90.226C95.457 90.411 95.405 90.596 95.364 90.782C95.334 90.885 95.313 90.997 95.271 91.1C95.251 91.193 95.22 91.285 95.2 91.368C94.984 92.211 94.737 93.033 94.48 93.855C94.357 94.246 94.233 94.626 94.099 95.017C94.089 95.058 94.069 95.099 94.058 95.14C93.945 95.469 93.822 95.809 93.708 96.138C93.698 96.159 93.698 96.168 93.688 96.189C93.647 96.293 93.606 96.395 93.565 96.508C93.441 96.836 93.318 97.166 93.184 97.494C93.03 97.895 92.866 98.286 92.701 98.677C92.557 99.027 92.403 99.376 92.249 99.726C92.228 99.788 92.198 99.839 92.178 99.901C92.003 100.271 91.838 100.641 91.663 101.001C91.488 101.382 91.304 101.763 91.108 102.143C91.097 102.164 91.088 102.174 91.077 102.195C90.718 102.924 90.327 103.665 89.935 104.375L89.38 105.361C87.797 108.086 86.038 110.646 84.126 113.01C83.869 113.35 83.602 113.679 83.324 113.997C82.943 114.46 82.552 114.912 82.162 115.354C81.833 115.724 81.494 116.104 81.144 116.464C81.133 116.485 81.123 116.494 81.103 116.515C80.116 117.575 79.108 118.581 78.08 119.528C77.875 119.734 77.659 119.919 77.443 120.114C77.093 120.432 76.744 120.741 76.383 121.04C76.106 121.286 75.818 121.522 75.531 121.76C74.791 122.366 74.05 122.952 73.3 123.497C72.991 123.733 72.673 123.96 72.354 124.176C71.84 124.546 71.316 124.896 70.791 125.235C70.503 125.43 70.205 125.616 69.907 125.791C69.855 125.821 69.814 125.853 69.762 125.873C68.765 126.49 67.747 127.055 66.75 127.549C66.492 127.683 66.235 127.806 65.979 127.93C65.722 128.053 65.454 128.176 65.177 128.299C64.837 128.453 64.498 128.598 64.158 128.732C64.025 128.794 63.891 128.844 63.758 128.886C63.357 129.05 62.946 129.204 62.545 129.338C62.041 129.522 61.526 129.677 61.023 129.821C60.674 129.923 60.314 130.016 59.964 130.098C59.943 130.108 59.923 130.119 59.892 130.119C59.542 130.201 59.193 130.283 58.844 130.346C58.751 130.366 58.658 130.387 58.566 130.397C58.278 130.449 57.991 130.501 57.703 130.531C57.292 130.592 56.881 130.644 56.469 130.665C56.326 130.686 56.192 130.696 56.048 130.696C55.719 130.717 55.4 130.726 55.082 130.726H55.041C54.723 130.726 54.404 130.716 54.085 130.696C53.961 130.696 53.838 130.685 53.715 130.665C53.427 130.654 53.129 130.624 52.82 130.583C52.758 130.583 52.686 130.572 52.625 130.563C52.245 130.511 51.864 130.45 51.474 130.377C51.145 130.325 50.816 130.254 50.477 130.172C48.719 129.771 46.91 129.164 45.08 128.352C43.517 127.664 41.934 126.831 40.361 125.864C40.268 125.813 40.186 125.752 40.093 125.7C39.394 125.268 38.685 124.805 37.996 124.322C37.605 124.045 37.215 123.767 36.824 123.479C35.6 122.584 34.387 121.608 33.195 120.559C32.866 120.261 32.537 119.962 32.208 119.654C31.879 119.356 31.55 119.048 31.232 118.75C30.471 118.02 29.731 117.27 29.021 116.478C28.969 116.437 28.929 116.385 28.887 116.344C28.589 116.026 28.291 115.697 27.992 115.358C27.17 114.432 26.368 113.476 25.607 112.479C25.309 112.119 25.031 111.749 24.754 111.378C23.715 110 22.728 108.561 21.803 107.07C21.556 106.67 21.309 106.257 21.073 105.857C20.785 105.374 20.508 104.881 20.23 104.386C19.829 103.666 19.449 102.937 19.079 102.197C18.482 101.035 17.937 99.843 17.434 98.629C17.31 98.342 17.187 98.054 17.084 97.766C16.92 97.396 16.775 97.016 16.642 96.646C16.58 96.47 16.509 96.296 16.457 96.122C16.313 95.751 16.18 95.382 16.056 95.011C15.871 94.467 15.696 93.911 15.521 93.357C15.356 92.822 15.202 92.287 15.058 91.743C14.894 91.167 14.74 90.581 14.606 89.984C14.596 89.922 14.575 89.861 14.565 89.8C14.565 89.779 14.555 89.769 14.555 89.748C14.36 88.946 14.195 88.124 14.041 87.301C13.979 86.993 13.928 86.685 13.887 86.365C13.743 85.563 13.641 84.741 13.548 83.919C13.497 83.559 13.466 83.199 13.435 82.839C13.394 82.459 13.363 82.089 13.342 81.708C13.291 81.02 13.26 80.32 13.239 79.621C13.228 79.21 13.218 78.808 13.218 78.397V46.99C13.218 24.649 30.727 6.38901 52.781 5.19701C52.822 5.18601 52.853 5.18601 52.894 5.18601C53.182 5.17601 53.47 5.16501 53.758 5.15501C54.19 5.14501 54.612 5.13401 55.043 5.13401H55.084C55.526 5.13401 55.968 5.14501 56.41 5.15501H56.503C56.812 5.16601 57.12 5.17601 57.429 5.19701H57.459C57.604 5.20701 57.747 5.21801 57.891 5.22701C58.2 5.24801 58.508 5.26801 58.806 5.29901C58.96 5.30901 59.105 5.32001 59.259 5.34001C59.362 5.35001 59.454 5.36101 59.557 5.37001C61.192 5.54601 62.795 5.81201 64.359 6.16201C67.084 6.77901 69.705 7.66301 72.193 8.78401C74.516 9.82201 76.727 11.066 78.794 12.495C79.761 13.153 80.686 13.852 81.58 14.593C81.93 14.881 82.268 15.169 82.608 15.457V15.467C84.592 17.195 86.412 19.097 88.026 21.173C93.537 28.196 96.858 37.017 96.93 46.619C96.938 46.744 96.938 46.867 96.938 46.99Z" fill="#DFB28B"/>
<path d="M104.392 49.469C104.392 53.89 103.806 58.177 102.706 62.258C102.11 64.551 101.329 66.772 100.403 68.91C100.126 69.578 99.827 70.247 99.508 70.894C98.634 70.329 97.771 69.732 96.938 69.095C96.3211 68.653 95.7141 68.18 95.119 67.697C93.6281 66.484 92.209 65.188 90.862 63.821C86.389 59.256 82.7811 53.858 80.272 47.884C75.409 59.461 66.382 68.868 55.073 74.225C48.472 77.351 41.1 79.099 33.317 79.099C28.495 79.099 23.827 78.43 19.406 77.176C17.504 76.631 15.654 75.984 13.854 75.242C13.844 75.232 13.844 75.242 13.844 75.242C13.628 75.15 13.423 75.057 13.217 74.965C13.042 74.894 12.878 74.821 12.713 74.749C11.603 72.889 10.606 70.945 9.73204 68.93C8.81704 66.802 8.04504 64.581 7.42904 62.299C6.32904 58.217 5.74304 53.899 5.74304 49.468C5.74304 22.233 27.827 0.14801 55.073 0.14801C63.915 0.14801 72.212 2.47201 79.388 6.55301C79.85 6.81001 80.313 7.08801 80.776 7.36601C94.933 16.033 104.392 31.65 104.392 49.469Z" fill="#141720"/>
</svg>
