<svg viewBox="0 0 110 190" fill="none" xmlns="http://www.w3.org/2000/svg">
<path d="M109.645 189.973V189.983H0.569824V189.973C0.569824 183.814 1.58782 177.882 3.47982 172.361C3.81882 171.364 4.18882 170.377 4.58982 169.4V169.39C4.98082 168.413 5.41183 167.457 5.86483 166.512C7.66383 162.718 9.90582 159.171 12.5068 155.922C13.1648 155.109 13.8338 154.318 14.5218 153.557C14.8608 153.166 15.2208 152.786 15.5808 152.405C15.9408 152.035 16.3008 151.665 16.6708 151.295C18.5108 149.454 20.4848 147.768 22.5618 146.216C23.6008 145.445 24.6488 144.725 25.7388 144.026C26.1298 143.779 26.5198 143.532 26.9208 143.296C27.0958 143.193 27.2808 143.09 27.4558 142.987C27.9908 142.668 28.5248 142.36 29.0698 142.062C29.0908 142.041 29.1108 142.041 29.1108 142.041C29.5528 141.804 29.9848 141.547 30.4168 141.28C31.7018 140.509 32.9358 139.655 34.1078 138.71C37.8808 135.708 41.0068 131.924 43.2478 127.616C43.9578 126.249 44.5848 124.83 45.1088 123.37C46.4148 119.73 47.1248 115.813 47.1248 111.721L55.0718 111.762H55.0928L63.2458 111.804C63.2458 115.844 63.9348 119.721 65.2088 123.319C65.7228 124.79 66.3398 126.208 67.0488 127.576C69.2798 131.904 72.3958 135.708 76.1688 138.721C76.9088 139.327 77.6598 139.883 78.4518 140.407C78.5338 140.469 78.6058 140.52 78.6878 140.572C79.0578 140.819 79.4278 141.066 79.8188 141.292C80.2408 141.549 80.6728 141.806 81.1038 142.042C81.1758 142.063 81.2378 142.093 81.2888 142.134C81.7718 142.402 82.2558 142.679 82.7278 142.967C83.1398 143.203 83.5508 143.45 83.9618 143.707C84.3828 143.964 84.8048 144.231 85.2158 144.529C86.0688 145.074 86.9018 145.671 87.7138 146.287C87.7138 146.297 87.7238 146.297 87.7238 146.297H87.7348C88.7728 147.068 89.7808 147.891 90.7678 148.733C91.7548 149.576 92.7008 150.461 93.6158 151.376C103.527 161.247 109.645 174.88 109.645 189.973Z" fill="#ECC19C"/>
<path d="M109.645 189.973H0.569824C0.569824 183.814 1.58782 177.882 3.47982 172.361C3.81882 171.364 4.18882 170.377 4.58982 169.4V169.39C4.98082 168.413 5.41183 167.457 5.86483 166.512C7.66383 162.718 9.90582 159.171 12.5068 155.922C13.1648 155.109 13.8338 154.318 14.5218 153.557C14.8608 153.166 15.2208 152.786 15.5808 152.405C15.9408 152.035 16.3008 151.665 16.6708 151.295C18.5108 149.454 20.4848 147.768 22.5618 146.216C23.6008 145.445 24.6488 144.725 25.7388 144.026C26.1298 143.779 26.5198 143.532 26.9208 143.296C27.0958 143.183 27.2708 143.08 27.4448 142.977C27.9798 142.658 28.5248 142.35 29.0698 142.052C29.0908 142.031 29.1108 142.042 29.1108 142.042V142.032C29.5528 141.785 29.9848 141.538 30.4168 141.282C31.7018 140.5 32.9358 139.637 34.0868 138.691C34.0968 138.701 34.0968 138.701 34.1078 138.711C39.4338 144.16 46.8468 147.543 55.0718 147.563H55.1538C63.3788 147.563 70.8228 144.17 76.1688 138.721L76.1788 138.711C76.9088 139.318 77.6698 139.883 78.4508 140.407C78.5328 140.469 78.6048 140.52 78.6868 140.572C79.0568 140.819 79.4368 141.055 79.8178 141.292C80.2398 141.549 80.6718 141.796 81.1028 142.032C81.1748 142.053 81.2258 142.094 81.2878 142.124C81.7708 142.392 82.2648 142.669 82.7378 142.957C83.1488 143.204 83.5608 143.451 83.9618 143.708C84.3828 143.965 84.8048 144.232 85.2158 144.53C86.0688 145.075 86.9018 145.672 87.7138 146.288H87.7348C88.7728 147.069 89.7908 147.882 90.7678 148.735C91.7548 149.578 92.7008 150.463 93.6158 151.378C103.527 161.247 109.645 174.88 109.645 189.973Z" fill="#BF8934"/>
<path d="M82.7378 142.957L82.7278 142.967L81.6068 144.108C74.5538 151.295 65.1358 155.253 55.0908 155.253C55.0808 155.253 55.0808 155.253 55.0698 155.253C44.9328 155.222 35.5458 151.264 28.5238 144.088L27.4548 142.988L27.4448 142.978C27.9798 142.659 28.5248 142.351 29.0698 142.053C29.0908 142.032 29.1108 142.043 29.1108 142.043V142.033C29.5528 141.786 29.9848 141.539 30.4168 141.283C31.7018 140.501 32.9358 139.638 34.0868 138.692C34.0968 138.702 34.0968 138.702 34.1078 138.712C39.4338 144.161 46.8468 147.544 55.0718 147.564H55.1538C63.3788 147.564 70.8228 144.171 76.1688 138.722L76.1788 138.712C76.9088 139.319 77.6698 139.884 78.4508 140.408C78.5328 140.47 78.6048 140.521 78.6868 140.573C79.0568 140.82 79.4368 141.056 79.8178 141.293C80.2398 141.55 80.6718 141.797 81.1028 142.033C81.1748 142.054 81.2258 142.095 81.2878 142.125C81.7718 142.391 82.2658 142.669 82.7378 142.957Z" fill="#333333"/>
<path d="M96.9679 53.324V78.42C96.9679 78.872 96.9579 79.325 96.9479 79.777C96.9379 80.126 96.9269 80.476 96.9069 80.825C96.8969 81.175 96.8759 81.514 96.8449 81.863C96.8349 82.099 96.8139 82.336 96.7939 82.573C96.7839 82.717 96.7739 82.85 96.7529 82.994C96.7329 83.251 96.7119 83.518 96.6709 83.775C96.6499 84.022 96.6299 84.269 96.5889 84.515C96.5679 84.752 96.5379 84.998 96.4959 85.245C96.4039 85.985 96.2799 86.725 96.1459 87.455C96.0539 87.949 95.9609 88.442 95.8579 88.926C95.8479 88.947 95.8479 88.967 95.8379 88.988C95.8279 89.06 95.8169 89.132 95.7969 89.204C95.7869 89.225 95.7869 89.245 95.7759 89.266C95.7759 89.287 95.7759 89.307 95.7659 89.328C95.7449 89.431 95.7249 89.534 95.6939 89.636C95.6739 89.759 95.6429 89.883 95.6119 90.006C95.5919 90.14 95.5599 90.263 95.5189 90.387C95.4879 90.572 95.4369 90.757 95.3949 90.942C95.3639 91.045 95.3439 91.158 95.3029 91.261C95.2819 91.354 95.2519 91.446 95.2309 91.529C95.0149 92.372 94.7679 93.194 94.5109 94.017C94.3879 94.408 94.2639 94.788 94.1309 95.179C94.1199 95.22 94.0999 95.261 94.0889 95.302C93.9659 95.652 93.8419 96.001 93.7189 96.351C93.6779 96.454 93.6369 96.556 93.5959 96.67C93.4719 96.999 93.3489 97.328 93.2159 97.657C93.0619 98.058 92.8969 98.449 92.7329 98.84C92.5889 99.19 92.4349 99.539 92.2799 99.888C92.2599 99.95 92.2289 100.001 92.2079 100.063C92.0329 100.433 91.8689 100.803 91.6939 101.163C91.5189 101.543 91.3339 101.924 91.1389 102.305C90.7689 103.055 90.3679 103.806 89.9669 104.536L89.4119 105.523C87.8279 108.248 86.0699 110.808 84.1579 113.172C83.9009 113.511 83.6339 113.84 83.3559 114.159C82.9749 114.622 82.5849 115.074 82.1939 115.516C81.8439 115.907 81.4949 116.297 81.1349 116.678C80.1479 117.737 79.1399 118.745 78.1119 119.691C77.9059 119.897 77.6909 120.082 77.4739 120.277C77.1239 120.596 76.7749 120.904 76.4149 121.202C76.1369 121.449 75.8499 121.685 75.5609 121.922C74.8209 122.528 74.0809 123.114 73.3299 123.659C73.0209 123.896 72.7029 124.122 72.3839 124.338C71.8699 124.708 71.3449 125.058 70.8209 125.397C70.5329 125.592 70.2349 125.777 69.9369 125.952C68.9809 126.548 68.0039 127.093 67.0479 127.576C66.9559 127.627 66.8739 127.668 66.7809 127.709C66.5239 127.843 66.2669 127.966 66.0099 128.09C65.7529 128.213 65.4859 128.337 65.2079 128.46C64.8689 128.614 64.5299 128.758 64.1899 128.892C64.0559 128.953 63.9219 129.005 63.7889 129.046C63.3879 129.21 62.9759 129.365 62.5759 129.498C62.0719 129.683 61.5579 129.837 61.0549 129.981C60.7049 130.084 60.3459 130.176 59.9959 130.258C59.9749 130.269 59.9549 130.279 59.9239 130.279C59.5739 130.361 59.2249 130.443 58.8749 130.505C58.7819 130.526 58.6899 130.546 58.5969 130.556C58.3089 130.607 58.0209 130.659 57.7329 130.69C57.3219 130.751 56.9109 130.803 56.4999 130.824C56.3559 130.845 56.2219 130.855 56.0789 130.855C55.7499 130.875 55.4209 130.886 55.1019 130.886H55.0709C54.7519 130.886 54.4339 130.876 54.1149 130.855C53.9909 130.855 53.8679 130.845 53.7449 130.824C53.4569 130.813 53.1589 130.783 52.8499 130.742C52.7879 130.742 52.7159 130.732 52.6549 130.721C52.2749 130.67 51.8939 130.608 51.5029 130.536C51.1739 130.485 50.8449 130.413 50.5059 130.331C48.7479 129.93 46.9389 129.323 45.1079 128.511C44.4909 128.233 43.8639 127.946 43.2469 127.616C42.2909 127.143 41.3349 126.608 40.3889 126.022C39.5969 125.539 38.8049 125.025 38.0239 124.48C37.6329 124.202 37.2429 123.925 36.8519 123.637C35.6289 122.742 34.4149 121.766 33.2229 120.717C32.8939 120.419 32.5649 120.121 32.2359 119.812C31.9069 119.514 31.5779 119.206 31.2589 118.907C30.4569 118.136 29.6759 117.334 28.9149 116.501C28.6169 116.182 28.3189 115.854 28.0199 115.514C27.1979 114.589 26.3949 113.633 25.6349 112.635C25.3369 112.275 25.0589 111.905 24.7819 111.535C23.7439 110.158 22.7569 108.718 21.8309 107.227C21.5839 106.826 21.3379 106.414 21.1009 106.014C20.8129 105.531 20.5359 105.037 20.2579 104.544C19.2299 102.693 18.2839 100.771 17.4609 98.786C17.3379 98.498 17.2139 98.21 17.1109 97.923C16.9469 97.553 16.8029 97.173 16.6689 96.802C16.4629 96.257 16.2679 95.712 16.0829 95.167C15.8979 94.622 15.7229 94.067 15.5479 93.512C15.3829 92.977 15.2289 92.443 15.0849 91.898C14.9209 91.322 14.7669 90.736 14.6329 90.14C14.6229 90.078 14.6019 90.016 14.5919 89.955C14.3969 89.133 14.2219 88.3 14.0679 87.456C13.8619 86.346 13.6979 85.215 13.5739 84.074C13.5229 83.714 13.4919 83.354 13.4609 82.994C13.4199 82.614 13.3889 82.243 13.3689 81.863C13.3179 81.174 13.2869 80.475 13.2659 79.776C13.2559 79.323 13.2449 78.871 13.2449 78.419V53.324C13.2449 47.577 14.4069 42.097 16.5039 37.11C16.5549 36.966 16.6169 36.833 16.6789 36.699C17.4919 34.818 18.4369 33.008 19.5169 31.281C19.6819 31.004 19.8559 30.736 20.0309 30.469C27.4949 19.036 40.3989 11.479 55.0699 11.469H55.1109C58.2989 11.469 61.4029 11.829 64.3849 12.497C67.1099 13.114 69.7309 13.998 72.2189 15.119C75.6119 16.64 78.7679 18.594 81.6059 20.928C83.9909 22.881 86.1609 25.081 88.0519 27.508C88.7919 28.454 89.4909 29.43 90.1499 30.438C90.3349 30.715 90.5199 30.993 90.6849 31.281C91.7539 32.998 92.7099 34.798 93.5219 36.679L93.7069 37.111C95.7629 41.995 96.9149 47.341 96.9559 52.955C96.9679 53.077 96.9679 53.2 96.9679 53.324Z" fill="#ECC19C"/>
<path d="M96.9678 78.42C96.9678 78.872 96.9578 79.325 96.9478 79.777C96.9378 80.126 96.9268 80.476 96.9068 80.825C96.8968 81.175 96.8758 81.514 96.8448 81.863C96.8348 82.099 96.8139 82.336 96.7939 82.573C96.7839 82.717 96.7739 82.85 96.7529 82.994C96.7329 83.251 96.7119 83.518 96.6709 83.775C96.6498 84.022 96.6199 84.269 96.5889 84.515C96.5678 84.752 96.5378 84.998 96.4958 85.245C96.4038 85.985 96.2798 86.725 96.1458 87.455C96.0638 87.887 95.9819 88.309 95.8889 88.73C95.8789 88.823 95.8578 88.905 95.8378 88.987C95.8278 89.059 95.8168 89.131 95.7968 89.203C95.7868 89.224 95.7868 89.244 95.7758 89.265C95.7758 89.286 95.7759 89.306 95.7659 89.327C95.7659 89.337 95.7659 89.348 95.7659 89.348C95.7449 89.461 95.7149 89.574 95.6938 89.677C95.6739 89.79 95.6428 89.903 95.6118 90.006C95.5919 90.14 95.5598 90.263 95.5188 90.387C95.4778 90.592 95.4258 90.788 95.3649 90.983C95.3549 91.075 95.3338 91.168 95.3038 91.26C95.2828 91.353 95.2528 91.445 95.2318 91.528C95.0158 92.371 94.7688 93.193 94.5118 94.016C94.3888 94.407 94.2649 94.787 94.1319 95.178C94.1208 95.219 94.1008 95.26 94.0898 95.301C93.9668 95.651 93.8428 96 93.7198 96.35C93.6788 96.453 93.6378 96.555 93.5968 96.669C93.4728 96.998 93.3498 97.327 93.2168 97.656C93.0628 98.057 92.8978 98.448 92.7338 98.839C92.5898 99.189 92.4359 99.538 92.2809 99.887C92.2609 99.949 92.2299 100 92.2088 100.062C92.0338 100.432 91.8699 100.802 91.6949 101.162C91.5199 101.542 91.3348 101.923 91.1398 102.304C90.7698 103.054 90.3689 103.805 89.9678 104.535L89.4128 105.522C87.8288 108.247 86.0708 110.807 84.1588 113.171C83.9018 113.51 83.6349 113.839 83.3569 114.158C82.9759 114.621 82.5859 115.073 82.1949 115.515C81.8449 115.906 81.4958 116.296 81.1358 116.677C80.1488 117.736 79.1409 118.744 78.1129 119.69C77.9069 119.896 77.6919 120.081 77.4749 120.276C77.1249 120.595 76.7759 120.903 76.4159 121.201C76.1379 121.448 75.8508 121.684 75.5618 121.921C74.8218 122.527 74.0819 123.113 73.3309 123.658C73.0219 123.895 72.7039 124.121 72.3849 124.337C71.8709 124.707 71.3458 125.057 70.8218 125.396C70.5339 125.591 70.2359 125.776 69.9379 125.951C68.9819 126.547 68.0049 127.092 67.0489 127.575C66.9569 127.626 66.8748 127.667 66.7818 127.708C66.5248 127.842 66.2679 127.965 66.0109 128.089C65.7539 128.212 65.4869 128.336 65.2089 128.459C64.8699 128.613 64.5309 128.757 64.1909 128.891C64.0569 128.952 63.9229 129.004 63.7899 129.045C63.3889 129.209 62.9769 129.364 62.5769 129.497C62.0729 129.682 61.5588 129.836 61.0559 129.98C60.7059 130.083 60.3469 130.175 59.9969 130.257C59.9759 130.268 59.9559 130.278 59.9249 130.278C59.5749 130.36 59.2258 130.442 58.8759 130.504C58.7829 130.525 58.6908 130.545 58.5979 130.555C58.3099 130.606 58.0219 130.658 57.7339 130.689C57.3229 130.75 56.9118 130.802 56.5009 130.823C56.3568 130.844 56.2229 130.854 56.0799 130.854C55.7509 130.874 55.4218 130.885 55.1028 130.885H55.0718C54.7528 130.885 54.4348 130.875 54.1158 130.854C53.9918 130.854 53.8689 130.844 53.7459 130.823C53.4579 130.812 53.1598 130.782 52.8508 130.741C52.7888 130.741 52.7169 130.731 52.6558 130.72C52.2758 130.669 51.8948 130.607 51.5038 130.535C51.1749 130.484 50.8459 130.412 50.5069 130.33C48.7489 129.929 46.9399 129.322 45.1089 128.51C44.4919 128.232 43.8649 127.945 43.2479 127.615C42.2919 127.142 41.3358 126.607 40.3899 126.021C39.5979 125.548 38.8169 125.034 38.0249 124.479C37.6339 124.201 37.2438 123.924 36.8528 123.636C35.6298 122.741 34.4158 121.765 33.2239 120.716C32.8948 120.418 32.5659 120.12 32.2369 119.811C31.9079 119.513 31.5789 119.205 31.2599 118.906C30.4579 118.135 29.6769 117.333 28.9159 116.5C28.6179 116.181 28.3199 115.853 28.0209 115.513C27.1989 114.588 26.3959 113.632 25.6359 112.634C25.3379 112.274 25.0599 111.904 24.7829 111.534C23.7449 110.157 22.7579 108.717 21.8319 107.226C21.5849 106.825 21.3389 106.413 21.1019 106.013C20.8139 105.53 20.5368 105.036 20.2589 104.543C19.2309 102.692 18.2849 100.77 17.4619 98.785C17.3389 98.497 17.2149 98.209 17.1119 97.922C16.9479 97.552 16.8038 97.172 16.6698 96.801C16.4638 96.256 16.2689 95.711 16.0839 95.166C15.8989 94.621 15.7239 94.066 15.5489 93.511C15.3839 92.976 15.2298 92.442 15.0858 91.897C14.9218 91.321 14.7679 90.735 14.6339 90.139C14.6239 90.077 14.6028 90.015 14.5928 89.954C14.3978 89.132 14.2229 88.299 14.0689 87.455C13.8629 86.345 13.6989 85.214 13.5749 84.073C13.5239 83.713 13.4929 83.353 13.4619 82.993C13.4209 82.613 13.3899 82.242 13.3699 81.862C13.3189 81.173 13.2878 80.474 13.2668 79.775C13.2568 79.322 13.2458 78.87 13.2458 78.418L19.9289 91.558L31.4129 96.565L44.9949 97.789H45.0048L55.0699 98.704H55.1319L64.5499 99.558C64.5599 99.558 64.5598 99.558 64.5598 99.558L85.5648 101.45L96.9678 78.42Z" fill="#141720"/>
<path d="M55.1528 85.021L55.1428 95.148V95.159L55.1328 98.706V101.492L55.1228 110.745V110.755L55.1128 110.745H55.1028L55.0928 110.735L55.0718 110.725L14.6348 90.142C14.6248 90.08 14.6038 90.018 14.5938 89.957C14.3988 89.135 14.2238 88.302 14.0698 87.458C13.8638 86.348 13.6998 85.217 13.5758 84.076C13.5248 83.716 13.4938 83.356 13.4628 82.996C13.4218 82.616 13.3908 82.245 13.3708 81.865C13.3198 81.176 13.2888 80.477 13.2678 79.778C13.2578 79.325 13.2468 78.873 13.2468 78.421V66.134C13.2468 66.309 13.2568 66.484 13.2568 66.658C13.2568 66.781 13.2668 66.905 13.2778 67.028C13.3798 69.896 13.8538 73.032 14.7268 76.24C15.4358 78.81 16.3208 81.185 17.3488 83.304V83.314C20.0428 88.917 23.6508 92.721 26.9728 93.338C27.1778 93.369 27.3938 93.389 27.5998 93.41C28.8848 93.554 30.2318 93.636 31.6198 93.636C36.8628 93.636 41.5208 89.421 44.4508 87.714C44.4718 87.704 44.4918 87.693 44.5128 87.683C44.6668 87.59 44.8218 87.498 44.9548 87.405C44.9958 87.374 45.0368 87.354 45.0778 87.333C47.5458 85.924 51.1028 85.03 55.0718 85.02H55.1528V85.021Z" fill="#141720"/>
<path d="M96.9808 66.129L96.9708 78.415C96.9708 81.499 96.6828 84.522 96.1488 87.452C95.9328 88.624 95.6858 89.786 95.3988 90.937L85.9088 104.642L55.1258 110.739H55.1158L55.1058 110.749V110.739L55.0748 85.011H55.1568C59.1248 85.021 62.6928 85.916 65.1598 87.324C65.2008 87.345 65.2318 87.365 65.2728 87.396C65.4168 87.488 65.5708 87.581 65.7248 87.673C65.7348 87.684 65.7558 87.694 65.7768 87.704C68.7168 89.411 73.3638 93.629 78.6078 93.629C79.9958 93.629 81.3428 93.547 82.6278 93.403C82.8438 93.382 83.0488 93.362 83.2648 93.331C86.5748 92.714 90.1948 88.91 92.8778 83.307V83.297C93.9058 81.179 94.7898 78.804 95.4998 76.234C96.4248 72.841 96.9088 69.53 96.9698 66.518C96.9808 66.386 96.9808 66.263 96.9808 66.129Z" fill="#141720"/>
<path d="M55.1069 101.491C60.7706 101.491 65.3619 100.072 65.3619 98.321C65.3619 96.5703 60.7706 95.151 55.1069 95.151C49.4433 95.151 44.8519 96.5703 44.8519 98.321C44.8519 100.072 49.4433 101.491 55.1069 101.491Z" fill="#ECC19C"/>
<path d="M91.7758 52.707C91.7758 52.532 91.6518 52.378 91.4778 52.357C90.0078 52.131 83.3868 51.226 76.2718 51.226C68.2008 51.226 57.7858 53.755 55.9658 53.755H54.3518C53.5088 53.755 50.7948 53.21 47.3198 52.624C43.3308 51.945 38.3438 51.226 34.0468 51.226C28.8348 51.226 23.8998 51.72 21.0508 52.059C20.0018 52.182 19.2408 52.295 18.8408 52.357C18.6658 52.378 18.5428 52.532 18.5428 52.707L18.4608 57.045C18.4608 57.199 18.5528 57.333 18.6868 57.395L19.1808 57.56C19.9108 57.838 19.8488 70.915 23.7458 74.185C26.0588 76.108 28.1258 77.208 36.8128 77.208C41.8408 77.208 45.0068 75.851 48.0088 71.8C50.1678 68.89 52.0908 62.012 52.0908 62.012C52.6458 59.277 54.6298 58.969 55.0718 58.928C55.0818 58.928 55.0818 58.928 55.0928 58.928H55.1238C55.1448 58.928 55.1548 58.928 55.1548 58.928C55.2268 58.928 57.6128 58.969 58.2288 62.012C58.2288 62.012 60.1518 68.89 62.3108 71.8C65.3128 75.851 68.4788 77.208 73.5068 77.208C82.1948 77.208 84.2608 76.108 86.5738 74.185C90.4698 70.915 90.4088 57.838 91.1388 57.56L91.6328 57.395C91.7668 57.333 91.8588 57.2 91.8588 57.045L91.7758 52.707ZM48.0078 68.18C46.7228 71.203 43.4328 75.099 38.7858 75.336C24.8548 76.035 24.2178 72.149 23.3118 69.065C22.4068 65.98 22.1708 63.276 22.5308 60.202C22.8908 57.118 23.6718 55.308 25.0708 54.404C25.6668 54.003 26.3248 53.643 28.0008 53.386C29.5018 53.17 31.8148 53.036 35.6708 53.036C37.9118 53.036 39.9998 53.211 41.8708 53.509C46.8258 54.311 50.1778 55.997 50.1778 57.652C50.1768 58.793 49.8898 63.708 48.0078 68.18ZM87.0048 69.065C86.0998 72.149 85.4628 76.036 71.5308 75.336C66.8838 75.1 63.5838 71.203 62.3088 68.18C60.4268 63.708 60.1398 58.793 60.1398 57.652C60.1398 55.37 66.4828 53.036 74.6468 53.036C82.7998 53.036 84.1058 53.643 85.2468 54.404C86.6448 55.309 87.4268 57.118 87.7868 60.202C88.1458 63.276 87.9098 65.98 87.0048 69.065Z" fill="#1A1A1A"/>
<path d="M97.0608 37.1C97.0498 37.1 97.0498 37.11 97.0398 37.11H13.2468C13.2468 7.51001 33.1928 8.70301 55.0718 11.139C55.0818 11.139 55.0818 11.139 55.0928 11.139C56.6458 11.314 58.2078 11.489 59.7708 11.663C76.1388 13.483 89.4628 6.40901 96.1358 0.14801C105.213 6.61601 106.828 30.489 97.0608 37.1Z" fill="#141720"/>
<path d="M27.8459 35.362L27.6199 36.071C27.5069 36.42 27.3938 36.77 27.2698 37.109C27.1668 37.387 27.0749 37.664 26.9608 37.932C25.0388 43.073 22.1289 47.782 18.5609 51.997C16.0529 54.968 13.5339 59.739 13.2769 67.028C13.2559 67.449 13.2458 67.871 13.2458 68.313V53.323C13.2458 44.831 13.2458 37.109 13.2458 37.109L16.6799 36.698L20.0319 36.297L23.9799 35.824L27.8459 35.362Z" fill="#141720"/>
<path d="M97.1758 37.113L82.5808 35.371L82.8078 36.076C84.6968 41.951 87.8818 47.284 91.8628 52C94.5198 55.148 97.1768 60.302 97.1768 68.323C97.1758 57.335 97.1758 37.113 97.1758 37.113Z" fill="#141720"/>
<path d="M55.0699 41.283C72.2956 41.283 86.2599 38.6361 86.2599 35.371C86.2599 32.1059 72.2956 29.459 55.0699 29.459C37.8441 29.459 23.8799 32.1059 23.8799 35.371C23.8799 38.6361 37.8441 41.283 55.0699 41.283Z" fill="#141720"/>
</svg>
