<svg width="31" height="31" viewBox="0 0 31 31" fill="none" xmlns="http://www.w3.org/2000/svg">
<path fill-rule="evenodd" clip-rule="evenodd" d="M19.3298 18.4127H20.3502L26.7956 24.8711L24.871 26.7957L18.4127 20.3502V19.3298L18.0639 18.9682C16.5914 20.234 14.6798 20.9961 12.6002 20.9961C7.9631 20.9961 4.20435 17.2373 4.20435 12.6002C4.20435 7.96316 7.9631 4.20441 12.6002 4.20441C17.2373 4.20441 20.996 7.96316 20.996 12.6002C20.996 14.6798 20.2339 16.5915 18.9681 18.064L19.3298 18.4127ZM6.78768 12.6002C6.78768 15.8165 9.38393 18.4127 12.6002 18.4127C15.8164 18.4127 18.4127 15.8165 18.4127 12.6002C18.4127 9.38399 15.8164 6.78774 12.6002 6.78774C9.38393 6.78774 6.78768 9.38399 6.78768 12.6002Z" fill="#F9F9F6"/>
</svg>
