<svg width="63" height="63" viewBox="0 0 63 63" fill="none" xmlns="http://www.w3.org/2000/svg">
<path fill-rule="evenodd" clip-rule="evenodd" d="M61.6459 0L0.780328 1.575L0 62.2125L62.4262 63L61.6459 0Z" fill="#333333"/>
<path fill-rule="evenodd" clip-rule="evenodd" d="M35.3298 34.4127H36.3502L42.7956 40.8711L40.871 42.7957L34.4127 36.3502V35.3298L34.0639 34.9682C32.5914 36.234 30.6798 36.9961 28.6002 36.9961C23.9631 36.9961 20.2043 33.2373 20.2043 28.6002C20.2043 23.9632 23.9631 20.2044 28.6002 20.2044C33.2373 20.2044 36.996 23.9632 36.996 28.6002C36.996 30.6798 36.2339 32.5915 34.9681 34.064L35.3298 34.4127ZM22.7877 28.6002C22.7877 31.8165 25.3839 34.4127 28.6002 34.4127C31.8164 34.4127 34.4127 31.8165 34.4127 28.6002C34.4127 25.384 31.8164 22.7877 28.6002 22.7877C25.3839 22.7877 22.7877 25.384 22.7877 28.6002Z" fill="#F9F9F6"/>
</svg>
