<svg viewBox="0 0 140 188" fill="none" xmlns="http://www.w3.org/2000/svg">
<path d="M122 83.2122L125.5 149.5H21.5L24 82L122 83.2122Z" fill="#141720"/>
<path d="M114.938 45.277V71.052C114.938 71.504 114.927 71.957 114.918 72.409C114.907 72.779 114.897 73.139 114.876 73.509C114.866 73.838 114.846 74.167 114.815 74.496C114.805 74.732 114.785 74.969 114.764 75.206C114.753 75.35 114.744 75.483 114.723 75.627C114.703 75.884 114.681 76.151 114.64 76.408C114.599 76.902 114.537 77.385 114.465 77.878C114.455 78.002 114.435 78.125 114.414 78.248C114.383 78.495 114.342 78.742 114.301 78.988V79.019C114.24 79.378 114.178 79.728 114.115 80.088C114.023 80.582 113.93 81.075 113.828 81.558C113.817 81.579 113.817 81.599 113.808 81.62C113.797 81.692 113.787 81.764 113.766 81.836C113.756 81.857 113.756 81.877 113.746 81.898C113.695 82.166 113.634 82.422 113.571 82.679C113.551 82.792 113.53 82.906 113.489 83.018C113.459 83.203 113.407 83.388 113.366 83.573C113.335 83.676 113.314 83.789 113.273 83.892C113.253 83.985 113.222 84.077 113.201 84.16C112.985 85.003 112.739 85.826 112.481 86.648C112.358 87.039 112.235 87.419 112.101 87.81C112.09 87.851 112.07 87.892 112.06 87.933C111.936 88.283 111.813 88.632 111.69 88.982C111.649 89.085 111.608 89.188 111.566 89.301C111.443 89.63 111.32 89.959 111.186 90.288C111.032 90.689 110.867 91.08 110.703 91.471C110.559 91.821 110.405 92.17 110.251 92.519C110.23 92.581 110.199 92.632 110.179 92.694C110.004 93.064 109.84 93.434 109.665 93.794C109.49 94.174 109.305 94.555 109.109 94.935C108.739 95.686 108.339 96.436 107.937 97.166L107.382 98.153C105.798 100.877 104.04 103.438 102.128 105.802C101.87 106.142 101.604 106.471 101.325 106.789C100.945 107.252 100.554 107.704 100.164 108.146C99.835 108.516 99.495 108.896 99.145 109.256C99.135 109.277 99.124 109.287 99.104 109.307C98.118 110.367 97.11 111.374 96.082 112.32C95.876 112.526 95.66 112.711 95.444 112.906C95.094 113.225 94.745 113.534 94.385 113.832C94.108 114.079 93.82 114.315 93.532 114.552C92.792 115.158 92.052 115.744 91.302 116.289C90.993 116.525 90.674 116.752 90.356 116.968C89.842 117.338 89.318 117.688 88.793 118.027C88.505 118.222 88.207 118.408 87.908 118.583C86.859 119.231 85.801 119.827 84.752 120.341C84.495 120.475 84.238 120.598 83.981 120.722C83.723 120.845 83.457 120.968 83.178 121.092C82.839 121.246 82.5 121.39 82.16 121.524C82.026 121.586 81.892 121.637 81.76 121.678C81.359 121.842 80.948 121.996 80.546 122.13C80.042 122.316 79.528 122.47 79.025 122.613C78.675 122.716 78.316 122.808 77.966 122.89C77.945 122.901 77.924 122.911 77.894 122.911C77.544 122.993 77.195 123.076 76.845 123.138C76.752 123.159 76.66 123.179 76.568 123.189C76.28 123.241 75.992 123.293 75.704 123.323C75.293 123.386 74.882 123.436 74.471 123.457C74.328 123.477 74.194 123.488 74.049 123.488C73.72 123.508 73.402 123.518 73.083 123.518H73.042C72.723 123.518 72.404 123.508 72.085 123.488C71.962 123.488 71.839 123.477 71.716 123.457C71.428 123.447 71.129 123.416 70.821 123.375C70.758 123.375 70.687 123.364 70.626 123.355C70.245 123.303 69.864 123.242 69.474 123.169C69.145 123.118 68.817 123.046 68.477 122.964C66.719 122.563 64.91 121.956 63.08 121.144C61.517 120.456 59.934 119.623 58.361 118.657C57.569 118.174 56.777 117.659 55.996 117.114C55.605 116.837 55.215 116.559 54.824 116.271C53.6 115.376 52.387 114.4 51.194 113.351C50.866 113.053 50.537 112.754 50.208 112.447C49.879 112.148 49.55 111.84 49.231 111.542C48.47 110.813 47.73 110.062 47.02 109.27C46.968 109.229 46.927 109.178 46.886 109.137C46.588 108.818 46.289 108.488 45.992 108.15C45.17 107.224 44.368 106.268 43.607 105.271C43.308 104.911 43.031 104.542 42.753 104.17C41.714 102.793 40.728 101.354 39.802 99.862C39.556 99.461 39.309 99.05 39.073 98.649C38.785 98.166 38.508 97.672 38.23 97.179C37.202 95.328 36.255 93.406 35.433 91.421C35.31 91.133 35.186 90.845 35.083 90.557C34.918 90.187 34.774 89.806 34.641 89.437C34.436 88.891 34.241 88.347 34.055 87.802C33.87 87.257 33.696 86.702 33.521 86.147C33.356 85.612 33.202 85.078 33.058 84.533C32.893 83.957 32.739 83.371 32.606 82.775C32.595 82.713 32.575 82.651 32.564 82.59C32.369 81.768 32.195 80.935 32.041 80.092C31.835 78.982 31.671 77.851 31.547 76.71C31.496 76.35 31.465 75.99 31.434 75.63C31.393 75.25 31.363 74.88 31.342 74.499C31.29 73.81 31.259 73.111 31.238 72.412C31.228 71.96 31.217 71.507 31.217 71.055V45.277C31.217 22.936 48.727 4.67596 70.779 3.48296C70.821 3.47196 70.851 3.47196 70.892 3.47196C71.18 3.46196 71.468 3.45096 71.756 3.44096C72.188 3.43096 72.609 3.41996 73.041 3.41996H73.082C73.523 3.41996 73.966 3.42996 74.408 3.44096C74.747 3.45096 75.087 3.46196 75.426 3.48296H75.457C77.811 3.61596 80.125 3.94496 82.355 4.44896C85.08 5.06596 87.702 5.94996 90.189 7.07096C93.583 8.59196 96.739 10.546 99.577 12.88C101.962 14.834 104.132 17.034 106.023 19.46C111.534 26.482 114.854 35.304 114.926 44.906C114.938 45.03 114.938 45.153 114.938 45.277Z" fill="#F0D0B4"/>
<path d="M127.615 187.745V187.756H18.54V187.745C18.54 181.648 19.537 175.767 21.398 170.288C21.419 170.236 21.429 170.184 21.45 170.134C21.789 169.137 22.159 168.15 22.56 167.173V167.162C22.951 166.185 23.382 165.229 23.834 164.283C25.634 160.489 27.875 156.942 30.476 153.693C31.134 152.881 31.803 152.089 32.492 151.329C32.831 150.938 33.191 150.558 33.551 150.178C33.911 149.808 34.271 149.438 34.641 149.068C36.482 147.227 38.455 145.542 40.533 143.989C41.571 143.218 42.62 142.498 43.71 141.799C43.854 141.707 43.998 141.614 44.142 141.532C44.543 141.274 44.944 141.028 45.356 140.792C45.911 140.463 46.476 140.144 47.042 139.835C47.063 139.815 47.083 139.815 47.083 139.815C47.525 139.579 47.957 139.322 48.389 139.054C49.674 138.283 50.909 137.43 52.08 136.484C57.046 132.537 60.891 127.231 63.081 121.144C63.719 119.355 64.222 117.495 64.561 115.583C64.911 113.608 65.096 111.573 65.096 109.496L73.043 109.537H73.176L81.216 109.578C81.216 111.614 81.391 113.608 81.731 115.552C82.06 117.464 82.553 119.315 83.18 121.094C85.339 127.2 89.174 132.527 94.14 136.495C94.88 137.101 95.631 137.656 96.422 138.181C96.505 138.244 96.576 138.294 96.659 138.346C97.029 138.593 97.399 138.839 97.79 139.066C98.211 139.323 98.644 139.58 99.075 139.816C99.146 139.836 99.209 139.868 99.26 139.909C100.165 140.413 101.06 140.937 101.934 141.482C102.005 141.523 102.067 141.564 102.139 141.616C102.489 141.832 102.849 142.057 103.188 142.305C104.042 142.85 104.875 143.447 105.686 144.064C105.686 144.074 105.697 144.074 105.697 144.074H105.707C106.746 144.845 107.753 145.668 108.74 146.511C109.727 147.354 110.673 148.239 111.588 149.154C117.49 155.024 122.044 162.242 124.759 170.293C126.607 175.768 127.615 181.639 127.615 187.745Z" fill="#F0D0B4"/>
<path d="M127.615 187.745H18.54C18.54 181.648 19.537 175.767 21.398 170.288C21.419 170.236 21.429 170.184 21.45 170.134C21.789 169.137 22.159 168.15 22.56 167.173V167.162C22.951 166.185 23.382 165.229 23.834 164.283C25.634 160.489 27.875 156.942 30.476 153.693C31.134 152.881 31.803 152.089 32.492 151.329C32.831 150.938 33.191 150.558 33.551 150.178C33.911 149.808 34.271 149.438 34.641 149.068C36.482 147.227 38.455 145.542 40.533 143.989C41.571 143.218 42.62 142.498 43.71 141.799C43.854 141.707 43.998 141.614 44.142 141.532C44.543 141.274 44.944 141.028 45.356 140.792C45.911 140.452 46.476 140.134 47.042 139.825C47.063 139.804 47.083 139.814 47.083 139.814V139.804C47.525 139.557 47.957 139.311 48.389 139.053C49.674 138.272 50.909 137.408 52.06 136.462C52.07 136.473 52.07 136.473 52.081 136.483C57.406 141.932 64.819 145.315 73.045 145.336H73.178C81.383 145.325 88.806 141.933 94.142 136.494L94.153 136.483C94.882 137.089 95.643 137.655 96.424 138.179C96.507 138.242 96.578 138.292 96.661 138.344C97.031 138.591 97.411 138.827 97.792 139.064C98.213 139.321 98.646 139.568 99.077 139.804C99.148 139.825 99.2 139.866 99.262 139.897C100.167 140.4 101.062 140.924 101.936 141.48C102.007 141.521 102.069 141.562 102.141 141.614C102.491 141.83 102.851 142.055 103.19 142.303C104.044 142.848 104.877 143.445 105.688 144.062H105.709C106.748 144.843 107.766 145.655 108.742 146.508C109.729 147.351 110.675 148.236 111.59 149.151C117.492 155.021 122.046 162.239 124.761 170.29C126.607 175.768 127.615 181.639 127.615 187.745Z" fill="#B68434"/>
<path d="M128.798 157.583C128.726 157.614 128.644 157.646 128.561 157.655C123.154 159.063 101.83 133.367 101.614 106.43C101.604 104.26 101.717 102.08 101.995 99.891C102.715 94.082 105.512 88.499 107.835 82.875C109.665 78.423 111.217 73.961 111.217 69.355C111.217 44.68 104.062 52.72 84.106 39.405C79.284 36.197 75.86 33.565 73.176 31.426C65.764 25.545 63.882 23.438 53.714 23.438C40.779 23.438 35.639 45.902 34.169 55.505C32.586 65.838 32.565 82.586 39.012 98.532C44.007 110.888 44.008 123.002 34.169 136.46C30.478 141.509 24.823 158.565 17.801 164.065C15.612 165.782 13.298 166.379 10.862 165.134C-8.32398 155.316 3.22202 123.803 8.98002 104.073C15.18 82.8419 17.051 61.323 21.554 39.886C26.632 15.749 47.297 1.03596 55.646 6.99996C58.432 2.00296 65.722 0.131958 73.175 0.131958C78.635 0.131958 84.197 1.14996 88.145 2.68196C118.629 14.516 119.144 42.769 120.768 54.52C122.105 64.226 126.885 73.294 128.561 82.876V82.907C128.921 84.922 129.137 86.978 129.148 89.055C129.219 100.272 127.965 107.86 136.489 117.205C142.955 124.289 138.01 153.543 128.798 157.583Z" fill="#141720"/>
<path d="M73.1751 145.335L73.1451 145.387L73.1341 145.407C70.2351 149.91 65.4341 152.254 60.5911 152.254C56.6531 152.254 52.6951 150.702 49.7241 147.515L44.1411 141.532C45.0871 140.925 46.0531 140.359 47.0401 139.825C47.0611 139.804 47.0811 139.814 47.0811 139.814V139.804C47.5231 139.557 47.9551 139.311 48.3871 139.053C49.6721 138.272 50.9071 137.408 52.0581 136.462C52.0681 136.473 52.0681 136.473 52.0791 136.483C57.4041 141.932 64.8171 145.315 73.0431 145.336H73.1751V145.335Z" fill="#E7ECF2"/>
<path d="M102.138 141.613L96.638 147.514C93.666 150.702 89.708 152.253 85.76 152.253C80.928 152.253 76.116 149.909 73.227 145.406L73.217 145.386L73.175 145.334C81.38 145.323 88.803 141.931 94.139 136.492L94.15 136.481C94.879 137.087 95.64 137.653 96.421 138.177C96.504 138.24 96.575 138.29 96.658 138.342C97.028 138.589 97.408 138.825 97.789 139.062C98.21 139.319 98.643 139.566 99.074 139.802C99.145 139.823 99.197 139.864 99.259 139.895C100.164 140.398 101.059 140.922 101.933 141.478C102.004 141.52 102.065 141.561 102.138 141.613Z" fill="#E7ECF2"/>
</svg>
