
<svg viewBox="0 0 140 188" fill="none" xmlns="http://www.w3.org/2000/svg">
    <path d="M121.756 83.0802L125.256 149.368H21.2563L23.7563 81.868L121.756 83.0802Z" fill="#141720"/>
    <path d="M114.694 45.145V70.92C114.694 71.372 114.683 71.825 114.674 72.277C114.663 72.647 114.653 73.007 114.632 73.377C114.622 73.706 114.602 74.035 114.571 74.364C114.561 74.6 114.541 74.837 114.52 75.074C114.509 75.218 114.5 75.351 114.479 75.495C114.459 75.752 114.437 76.019 114.396 76.276C114.355 76.77 114.293 77.253 114.221 77.746C114.211 77.87 114.191 77.993 114.17 78.116C114.139 78.363 114.098 78.61 114.057 78.856V78.887C113.996 79.246 113.934 79.596 113.871 79.956C113.779 80.45 113.686 80.943 113.584 81.426C113.573 81.447 113.573 81.467 113.564 81.488C113.553 81.56 113.543 81.632 113.522 81.704C113.512 81.725 113.512 81.745 113.502 81.766C113.451 82.034 113.39 82.29 113.327 82.547C113.307 82.66 113.286 82.774 113.245 82.886C113.215 83.071 113.163 83.256 113.122 83.441C113.091 83.544 113.07 83.657 113.029 83.76C113.009 83.853 112.978 83.945 112.957 84.028C112.741 84.871 112.495 85.694 112.237 86.516C112.114 86.907 111.991 87.287 111.857 87.678C111.846 87.719 111.826 87.76 111.816 87.801C111.692 88.151 111.569 88.5 111.446 88.85C111.405 88.953 111.364 89.056 111.322 89.169C111.199 89.498 111.076 89.827 110.942 90.156C110.788 90.557 110.623 90.948 110.459 91.339C110.315 91.689 110.161 92.038 110.007 92.387C109.986 92.449 109.955 92.5 109.935 92.562C109.76 92.932 109.596 93.302 109.421 93.662C109.246 94.042 109.061 94.423 108.865 94.803C108.495 95.554 108.095 96.304 107.693 97.034L107.138 98.021C105.554 100.745 103.796 103.306 101.884 105.67C101.626 106.01 101.36 106.339 101.081 106.657C100.701 107.12 100.31 107.572 99.9204 108.014C99.5914 108.384 99.2514 108.764 98.9014 109.124C98.8914 109.145 98.8804 109.155 98.8604 109.175C97.8744 110.235 96.8664 111.242 95.8384 112.188C95.6324 112.394 95.4164 112.579 95.2004 112.774C94.8504 113.093 94.5014 113.402 94.1414 113.7C93.8644 113.947 93.5764 114.183 93.2884 114.42C92.5484 115.026 91.8084 115.612 91.0584 116.157C90.7494 116.393 90.4304 116.62 90.1124 116.836C89.5984 117.206 89.0744 117.556 88.5494 117.895C88.2614 118.09 87.9634 118.276 87.6644 118.451C86.6154 119.099 85.5574 119.695 84.5084 120.209C84.2514 120.343 83.9944 120.466 83.7374 120.59C83.4794 120.713 83.2134 120.836 82.9344 120.96C82.5954 121.114 82.2564 121.258 81.9164 121.392C81.7824 121.454 81.6484 121.505 81.5164 121.546C81.1154 121.71 80.7044 121.864 80.3024 121.998C79.7984 122.184 79.2844 122.338 78.7814 122.481C78.4314 122.584 78.0724 122.676 77.7224 122.758C77.7014 122.769 77.6804 122.779 77.6504 122.779C77.3004 122.861 76.9514 122.944 76.6014 123.006C76.5084 123.027 76.4164 123.047 76.3244 123.057C76.0364 123.109 75.7484 123.161 75.4604 123.191C75.0494 123.254 74.6384 123.304 74.2274 123.325C74.0844 123.345 73.9504 123.356 73.8054 123.356C73.4764 123.376 73.1584 123.386 72.8394 123.386H72.7984C72.4794 123.386 72.1604 123.376 71.8414 123.356C71.7184 123.356 71.5954 123.345 71.4724 123.325C71.1844 123.315 70.8854 123.284 70.5774 123.243C70.5144 123.243 70.4434 123.232 70.3824 123.223C70.0014 123.171 69.6204 123.11 69.2304 123.037C68.9014 122.986 68.5734 122.914 68.2334 122.832C66.4754 122.431 64.6664 121.824 62.8364 121.012C61.2734 120.324 59.6904 119.491 58.1174 118.525C57.3254 118.042 56.5334 117.527 55.7524 116.982C55.3614 116.705 54.9714 116.427 54.5804 116.139C53.3564 115.244 52.1434 114.268 50.9504 113.219C50.6224 112.921 50.2934 112.622 49.9644 112.315C49.6354 112.016 49.3064 111.708 48.9874 111.41C48.2264 110.681 47.4864 109.93 46.7764 109.138C46.7244 109.097 46.6834 109.046 46.6424 109.005C46.3444 108.686 46.0454 108.356 45.7484 108.018C44.9264 107.092 44.1244 106.136 43.3634 105.139C43.0644 104.779 42.7874 104.41 42.5094 104.038C41.4704 102.661 40.4844 101.222 39.5584 99.73C39.3124 99.329 39.0654 98.918 38.8294 98.517C38.5414 98.034 38.2644 97.54 37.9864 97.047C36.9584 95.196 36.0114 93.274 35.1894 91.289C35.0664 91.001 34.9424 90.713 34.8394 90.425C34.6744 90.055 34.5304 89.674 34.3974 89.305C34.1924 88.759 33.9974 88.215 33.8114 87.67C33.6264 87.125 33.4524 86.57 33.2774 86.015C33.1124 85.48 32.9584 84.946 32.8144 84.401C32.6494 83.825 32.4954 83.239 32.3624 82.643C32.3514 82.581 32.3314 82.519 32.3204 82.458C32.1254 81.636 31.9514 80.803 31.7974 79.96C31.5914 78.85 31.4274 77.719 31.3034 76.578C31.2524 76.218 31.2214 75.858 31.1904 75.498C31.1494 75.118 31.1194 74.748 31.0984 74.367C31.0464 73.678 31.0154 72.979 30.9944 72.28C30.9844 71.828 30.9734 71.375 30.9734 70.923V45.145C30.9734 22.804 48.4834 4.54396 70.5354 3.35096C70.5774 3.33996 70.6074 3.33996 70.6484 3.33996C70.9364 3.32996 71.2244 3.31896 71.5124 3.30896C71.9444 3.29896 72.3654 3.28796 72.7974 3.28796H72.8384C73.2794 3.28796 73.7224 3.29796 74.1644 3.30896C74.5034 3.31896 74.8434 3.32996 75.1824 3.35096H75.2134C77.5674 3.48396 79.8814 3.81296 82.1114 4.31696C84.8364 4.93396 87.4584 5.81796 89.9454 6.93896C93.3394 8.45996 96.4954 10.414 99.3334 12.748C101.718 14.702 103.888 16.902 105.779 19.328C111.29 26.35 114.61 35.172 114.682 44.774C114.694 44.898 114.694 45.021 114.694 45.145Z" fill="#F0D0B4"/>
    <path d="M127.371 187.613V187.624H18.2964V187.613C18.2964 181.516 19.2934 175.635 21.1544 170.156C21.1754 170.104 21.1854 170.052 21.2064 170.002C21.5454 169.005 21.9154 168.018 22.3164 167.041V167.03C22.7074 166.053 23.1384 165.097 23.5904 164.151C25.3904 160.357 27.6314 156.81 30.2324 153.561C30.8904 152.749 31.5594 151.957 32.2484 151.197C32.5874 150.806 32.9474 150.426 33.3074 150.046C33.6674 149.676 34.0274 149.306 34.3974 148.936C36.2384 147.095 38.2114 145.41 40.2894 143.857C41.3274 143.086 42.3764 142.366 43.4664 141.667C43.6104 141.575 43.7544 141.482 43.8984 141.4C44.2994 141.142 44.7004 140.896 45.1124 140.66C45.6674 140.331 46.2324 140.012 46.7984 139.703C46.8194 139.683 46.8394 139.683 46.8394 139.683C47.2814 139.447 47.7134 139.19 48.1454 138.922C49.4304 138.151 50.6654 137.298 51.8364 136.352C56.8024 132.405 60.6474 127.099 62.8374 121.012C63.4754 119.223 63.9784 117.363 64.3174 115.451C64.6674 113.476 64.8524 111.441 64.8524 109.364L72.7994 109.405H72.9324L80.9724 109.446C80.9724 111.482 81.1474 113.476 81.4874 115.42C81.8164 117.332 82.3094 119.183 82.9364 120.962C85.0954 127.068 88.9304 132.395 93.8964 136.363C94.6364 136.969 95.3874 137.524 96.1784 138.049C96.2614 138.112 96.3324 138.162 96.4154 138.214C96.7854 138.461 97.1554 138.707 97.5464 138.934C97.9674 139.191 98.4004 139.448 98.8314 139.684C98.9024 139.704 98.9654 139.736 99.0164 139.777C99.9214 140.281 100.816 140.805 101.69 141.35C101.761 141.391 101.823 141.432 101.895 141.484C102.245 141.7 102.605 141.925 102.944 142.173C103.798 142.718 104.631 143.315 105.442 143.932C105.442 143.942 105.453 143.942 105.453 143.942H105.463C106.502 144.713 107.509 145.536 108.496 146.379C109.483 147.222 110.429 148.107 111.344 149.022C117.246 154.892 121.8 162.11 124.515 170.161C126.363 175.636 127.371 181.507 127.371 187.613Z" fill="#F0D0B4"/>
    <path d="M127.371 187.613H18.2964C18.2964 181.516 19.2934 175.635 21.1544 170.156C21.1754 170.104 21.1854 170.052 21.2064 170.002C21.5454 169.005 21.9154 168.018 22.3164 167.041V167.03C22.7074 166.053 23.1384 165.097 23.5904 164.151C25.3904 160.357 27.6314 156.81 30.2324 153.561C30.8904 152.749 31.5594 151.957 32.2484 151.197C32.5874 150.806 32.9474 150.426 33.3074 150.046C33.6674 149.676 34.0274 149.306 34.3974 148.936C36.2384 147.095 38.2114 145.41 40.2894 143.857C41.3274 143.086 42.3764 142.366 43.4664 141.667C43.6104 141.575 43.7544 141.482 43.8984 141.4C44.2994 141.142 44.7004 140.896 45.1124 140.66C45.6674 140.32 46.2324 140.002 46.7984 139.693C46.8194 139.672 46.8394 139.682 46.8394 139.682V139.672C47.2814 139.425 47.7134 139.179 48.1454 138.921C49.4304 138.14 50.6654 137.276 51.8164 136.33C51.8264 136.341 51.8264 136.341 51.8374 136.351C57.1624 141.8 64.5754 145.183 72.8014 145.204H72.9344C81.1394 145.193 88.5624 141.801 93.8984 136.362L93.9094 136.351C94.6384 136.957 95.3994 137.523 96.1804 138.047C96.2634 138.11 96.3344 138.16 96.4174 138.212C96.7874 138.459 97.1674 138.695 97.5484 138.932C97.9694 139.189 98.4024 139.436 98.8334 139.672C98.9044 139.693 98.9564 139.734 99.0184 139.765C99.9234 140.268 100.818 140.792 101.692 141.348C101.763 141.389 101.825 141.43 101.897 141.482C102.247 141.698 102.607 141.923 102.946 142.171C103.8 142.716 104.633 143.313 105.444 143.93H105.465C106.504 144.711 107.522 145.523 108.498 146.376C109.485 147.219 110.431 148.104 111.346 149.019C117.248 154.889 121.802 162.107 124.517 170.158C126.363 175.636 127.371 181.507 127.371 187.613Z" fill="#B68434"/>
    <path d="M128.554 157.451C128.482 157.482 128.4 157.514 128.317 157.523C122.91 158.931 101.586 133.235 101.37 106.298C101.36 104.128 101.473 101.948 101.751 99.759C102.471 93.95 105.268 88.367 107.591 82.743C109.421 78.291 110.973 73.829 110.973 69.223C110.973 44.548 103.818 52.588 83.8624 39.273C79.0404 36.065 75.6164 33.433 72.9324 31.294C65.5204 25.413 63.6384 23.306 53.4704 23.306C40.5354 23.306 35.3954 45.77 33.9254 55.373C32.3424 65.706 32.3214 82.454 38.7684 98.4C43.7634 110.756 43.7644 122.87 33.9254 136.328C30.2344 141.377 24.5794 158.433 17.5574 163.933C15.3684 165.65 13.0544 166.247 10.6184 165.002C-8.56763 155.184 2.97837 123.671 8.73637 103.941C14.9364 82.71 16.8074 61.191 21.3104 39.754C26.3884 15.617 47.0534 0.904 55.4024 6.868C58.1884 1.871 65.4784 0 72.9314 0C78.3914 0 83.9534 1.018 87.9014 2.55C118.385 14.384 118.9 42.637 120.524 54.388C121.861 64.094 126.641 73.162 128.317 82.744V82.775C128.677 84.79 128.893 86.846 128.904 88.923C128.975 100.14 127.721 107.728 136.245 117.073C142.711 124.157 137.766 153.411 128.554 157.451Z" fill="#141720"/>
    <path d="M72.9313 145.203L72.9013 145.255L72.8903 145.275C69.9913 149.778 65.1903 152.122 60.3473 152.122C56.4093 152.122 52.4513 150.57 49.4803 147.383L43.8973 141.4C44.8433 140.793 45.8093 140.227 46.7963 139.693C46.8173 139.672 46.8373 139.682 46.8373 139.682V139.672C47.2793 139.425 47.7113 139.179 48.1433 138.921C49.4283 138.14 50.6633 137.276 51.8143 136.33C51.8243 136.341 51.8243 136.341 51.8353 136.351C57.1603 141.8 64.5733 145.183 72.7993 145.204H72.9313V145.203Z" fill="#E7ECF2"/>
    <path d="M101.894 141.481L96.3944 147.382C93.4224 150.57 89.4644 152.121 85.5164 152.121C80.6844 152.121 75.8724 149.777 72.9834 145.274L72.9734 145.254L72.9314 145.202C81.1364 145.191 88.5594 141.799 93.8954 136.36L93.9064 136.349C94.6354 136.955 95.3964 137.521 96.1774 138.045C96.2604 138.108 96.3314 138.158 96.4144 138.21C96.7844 138.457 97.1644 138.693 97.5454 138.93C97.9664 139.187 98.3994 139.434 98.8304 139.67C98.9014 139.691 98.9534 139.732 99.0154 139.763C99.9204 140.266 100.815 140.79 101.689 141.346C101.76 141.388 101.821 141.429 101.894 141.481Z" fill="#E7ECF2"/>
</svg>
